<svg xmlns="http://www.w3.org/2000/svg" width="140.328" height="29.815" viewBox="0 0 140.328 29.815">
  <g id="Grupo_897686" data-name="Grupo 897686" transform="translate(23282.328 11777.908)">
    <g id="Grupo_877989" data-name="Grupo 877989" transform="translate(-23406.291 -11686.682) rotate(-90)">
      <path id="Trazado_602306" data-name="Trazado 602306" d="M91.226,130.027l-6.064-6.064-8.843,8.843-8.843-8.843-6.064,6.064,8.843,8.843-8.843,8.843,6.064,6.064,8.843-8.843,8.843,8.843,6.064-6.064-8.843-8.843Z" fill="#fdfdfd"/>
      <path id="Trazado_602307" data-name="Trazado 602307" d="M91.226,185.284l-6.064-6.064-8.843,8.843-8.843-8.843-6.064,6.064,8.843,8.843-8.843,8.843,6.064,6.064,8.843-8.843,8.843,8.843,6.064-6.064-8.843-8.843Z" fill="#fdfdfd"/>
      <path id="Trazado_602308" data-name="Trazado 602308" d="M91.226,240.54l-6.064-6.064-8.843,8.843-8.843-8.843-6.064,6.064,8.843,8.843-8.843,8.843,6.064,6.064,8.843-8.843,8.843,8.843,6.064-6.064-8.843-8.843Z" fill="#fdfdfd"/>
    </g>
  </g>
</svg>
