<svg xmlns="http://www.w3.org/2000/svg" width="815.985" height="177.641" viewBox="0 0 815.985 177.641">
  <g id="Grupo_895311" data-name="Grupo 895311" transform="translate(-180 -1071)">
    <g id="Grupo_895295" data-name="Grupo 895295" transform="translate(-105 0.137)">
      <rect id="Rectángulo_299465" data-name="Rectángulo 299465" width="146.687" height="146.687" rx="10.516" transform="translate(299.477 1087.34)" fill="#fecb2f"/>
      <path id="Trazado_619927" data-name="Trazado 619927" d="M84.851,1364.7H-48.934a7.9,7.9,0,0,1-7.889-7.889V1223.03a7.9,7.9,0,0,1,7.889-7.889H84.851a7.9,7.9,0,0,1,7.889,7.889v133.785A7.9,7.9,0,0,1,84.851,1364.7ZM-48.934,1218.016a5.019,5.019,0,0,0-5.014,5.014v133.785a5.019,5.019,0,0,0,5.014,5.014H84.851a5.019,5.019,0,0,0,5.013-5.014V1223.03a5.019,5.019,0,0,0-5.013-5.014Z" transform="translate(354.862 -129.239)" fill="#fff"/>
      <g id="Grupo_889277" data-name="Grupo 889277" transform="translate(285 1154.933)">
        <g id="Grupo_889274" data-name="Grupo 889274" transform="translate(172.765)">
          <path id="Trazado_619928" data-name="Trazado 619928" d="M204.973,1333.415a1.438,1.438,0,0,1-1.437-1.437V1329.1a1.438,1.438,0,1,1,2.875,0v2.875A1.438,1.438,0,0,1,204.973,1333.415Z" transform="translate(-203.536 -1327.664)" fill="#fecb2f"/>
        </g>
        <g id="Grupo_889275" data-name="Grupo 889275" transform="translate(0 14.311)">
          <path id="Trazado_619929" data-name="Trazado 619929" d="M81.231,1430.252H75.513a1.438,1.438,0,0,1,0-2.876h5.718a1.438,1.438,0,1,1,0,2.876Zm-17.154,0H58.358a1.438,1.438,0,0,1,0-2.876h5.718a1.438,1.438,0,0,1,0,2.876Zm-17.155,0H41.2a1.438,1.438,0,0,1,0-2.876h5.718a1.438,1.438,0,0,1,0,2.876Zm-17.155,0H24.049a1.438,1.438,0,0,1,0-2.876h5.718a1.438,1.438,0,0,1,0,2.876Zm-17.155,0H6.894a1.438,1.438,0,0,1,0-2.876h5.718a1.438,1.438,0,0,1,0,2.876Zm-17.154,0h-5.718a1.438,1.438,0,0,1-1.438-1.438,1.438,1.438,0,0,1,1.438-1.438h5.718a1.438,1.438,0,0,1,1.438,1.438A1.438,1.438,0,0,1-4.542,1430.252Zm-17.155,0h-5.718a1.438,1.438,0,0,1-1.437-1.438,1.438,1.438,0,0,1,1.437-1.438H-21.7a1.438,1.438,0,0,1,1.438,1.438A1.438,1.438,0,0,1-21.7,1430.252Zm-17.154,0H-44.57a1.438,1.438,0,0,1-1.437-1.438,1.438,1.438,0,0,1,1.437-1.438h5.719a1.438,1.438,0,0,1,1.437,1.438A1.438,1.438,0,0,1-38.851,1430.252Zm-17.155,0h-5.719a1.438,1.438,0,0,1-1.437-1.438,1.438,1.438,0,0,1,1.437-1.438h5.719a1.438,1.438,0,0,1,1.437,1.438A1.438,1.438,0,0,1-56.006,1430.252Zm-16.348-3.262a1.427,1.427,0,0,1-.956-.365q-.3-.268-.586-.553a14.174,14.174,0,0,1-3.076-4.58,1.437,1.437,0,0,1,.771-1.881,1.439,1.439,0,0,1,1.881.771,11.347,11.347,0,0,0,2.456,3.657c.152.151.308.3.467.442a1.437,1.437,0,0,1,.116,2.029A1.432,1.432,0,0,1-72.354,1426.99Zm164.208-.013a1.438,1.438,0,0,1-.96-2.508c.156-.14.309-.283.458-.433a11.357,11.357,0,0,0,2.462-3.672,1.438,1.438,0,0,1,2.653,1.107,14.231,14.231,0,0,1-3.084,4.6q-.28.278-.571.539A1.435,1.435,0,0,1,91.854,1426.977ZM-76.639,1411.07a1.438,1.438,0,0,1-1.438-1.437v-5.718a1.438,1.438,0,0,1,1.438-1.437,1.438,1.438,0,0,1,1.437,1.437v5.718A1.438,1.438,0,0,1-76.639,1411.07Zm172.765-.02a1.438,1.438,0,0,1-1.437-1.437v-5.72a1.438,1.438,0,0,1,2.875,0v5.72A1.438,1.438,0,0,1,96.126,1411.05Zm-172.765-17.135a1.438,1.438,0,0,1-1.438-1.437v-5.719a1.438,1.438,0,0,1,1.438-1.437,1.438,1.438,0,0,1,1.437,1.437v5.719A1.438,1.438,0,0,1-76.639,1393.916Zm172.765-.021a1.438,1.438,0,0,1-1.437-1.437v-5.718a1.438,1.438,0,0,1,2.875,0v5.718A1.438,1.438,0,0,1,96.126,1393.895ZM-76.639,1376.76a1.438,1.438,0,0,1-1.438-1.437V1369.6a1.438,1.438,0,0,1,1.438-1.437A1.438,1.438,0,0,1-75.2,1369.6v5.718A1.438,1.438,0,0,1-76.639,1376.76Zm172.765-.019a1.438,1.438,0,0,1-1.437-1.438v-5.719a1.438,1.438,0,1,1,2.875,0v5.719A1.439,1.439,0,0,1,96.126,1376.741Zm-172.765-17.135a1.438,1.438,0,0,1-1.438-1.438v-5.719a1.438,1.438,0,0,1,1.438-1.437,1.438,1.438,0,0,1,1.437,1.437v5.719A1.438,1.438,0,0,1-76.639,1359.607Zm172.765-.021a1.438,1.438,0,0,1-1.437-1.438v-5.718a1.438,1.438,0,1,1,2.875,0v5.718A1.439,1.439,0,0,1,96.126,1359.586Z" transform="translate(78.077 -1350.992)" fill="#fecb2f"/>
        </g>
        <g id="Grupo_889276" data-name="Grupo 889276">
          <path id="Trazado_619930" data-name="Trazado 619930" d="M-76.639,1333.415a1.438,1.438,0,0,1-1.438-1.437V1329.1a1.438,1.438,0,0,1,1.438-1.438A1.438,1.438,0,0,1-75.2,1329.1v2.875A1.438,1.438,0,0,1-76.639,1333.415Z" transform="translate(78.077 -1327.664)" fill="#fecb2f"/>
        </g>
      </g>
      <g id="Grupo_889280" data-name="Grupo 889280" transform="translate(285 1072.863)">
        <g id="Grupo_889278" data-name="Grupo 889278">
          <path id="Trazado_619931" data-name="Trazado 619931" d="M117.593,1283.146h-22.9v-74.985a11.4,11.4,0,0,0-11.4-11.4H-63.8a11.321,11.321,0,0,0-8.059,3.338,11.324,11.324,0,0,0-3.338,8.059v73.548h-2.875v-73.548a14.177,14.177,0,0,1,4.181-10.092,14.175,14.175,0,0,1,10.092-4.181h147.1a14.275,14.275,0,0,1,14.273,14.273v72.11h20.029Z" transform="translate(78.077 -1193.888)" fill="#fecb2f"/>
        </g>
        <g id="Grupo_889279" data-name="Grupo 889279" transform="translate(193.572 80.653)">
          <path id="Trazado_619932" data-name="Trazado 619932" d="M237.452,1339.69l12.413-7.168-12.413-7.168Z" transform="translate(-237.452 -1325.354)" fill="#fecb2f"/>
        </g>
      </g>
      <g id="Grupo_895291" data-name="Grupo 895291" transform="translate(2399.81 944.166)">
        <path id="Trazado_623881" data-name="Trazado 623881" d="M-2007.355,161.165h-45.972c-4.547,0-8.233,4.472-8.233,9.989V259.88c0,5.517,3.686,9.989,8.233,9.989h60.54c4.548,0,8.234-4.472,8.234-9.989V189.9C-1992.155,180.332-2000.925,169.29-2007.355,161.165Z" fill="#fff"/>
        <rect id="Rectángulo_300772" data-name="Rectángulo 300772" width="62.872" height="24.091" rx="2.681" transform="translate(-2077.425 181.143)" fill="#37b73e"/>
        <text id="_.XLS" data-name=".XLS" transform="translate(-2063.516 199.857)" fill="#fff" font-size="18.411" font-family="SegoeUI, Segoe UI"><tspan x="0" y="0">.XLS</tspan></text>
        <path id="Trazado_623882" data-name="Trazado 623882" d="M-2007.355,161.165v20.3c0,4.547,3,8.234,6.693,8.234h15.785Z" fill="#e5e5e5"/>
        <line id="Línea_484" data-name="Línea 484" x2="48.34" transform="translate(-2046.34 219.362)" fill="none" stroke="#e5e5e5" stroke-linecap="round" stroke-miterlimit="10" stroke-width="4"/>
        <line id="Línea_485" data-name="Línea 485" x2="48.34" transform="translate(-2046.34 229.801)" fill="none" stroke="#e5e5e5" stroke-linecap="round" stroke-miterlimit="10" stroke-width="4"/>
        <line id="Línea_486" data-name="Línea 486" x2="48.34" transform="translate(-2046.34 240.241)" fill="none" stroke="#e5e5e5" stroke-linecap="round" stroke-miterlimit="10" stroke-width="4"/>
        <line id="Línea_487" data-name="Línea 487" x2="48.34" transform="translate(-2046.34 250.681)" fill="none" stroke="#e5e5e5" stroke-linecap="round" stroke-miterlimit="10" stroke-width="4"/>
      </g>
    </g>
    <g id="Grupo_895296" data-name="Grupo 895296" transform="translate(-157.319 -1.863)">
      <g id="Grupo_889286" data-name="Grupo 889286" transform="translate(557.373 1085.902)">
        <rect id="Rectángulo_299467" data-name="Rectángulo 299467" width="146.687" height="146.687" rx="10.516" transform="translate(1.438 1.438)" fill="#0b5999"/>
        <path id="Trazado_619937" data-name="Trazado 619937" d="M415.484,1364.7H281.7a7.9,7.9,0,0,1-7.889-7.889V1223.03a7.9,7.9,0,0,1,7.889-7.889H415.484a7.9,7.9,0,0,1,7.888,7.889v133.785A7.9,7.9,0,0,1,415.484,1364.7ZM281.7,1218.016a5.019,5.019,0,0,0-5.014,5.014v133.785a5.019,5.019,0,0,0,5.014,5.014H415.484a5.019,5.019,0,0,0,5.013-5.014V1223.03a5.019,5.019,0,0,0-5.013-5.014Z" transform="translate(-273.81 -1215.141)" fill="#fff"/>
      </g>
      <g id="Grupo_889290" data-name="Grupo 889290" transform="translate(544.334 1072.863)">
        <g id="Grupo_889287" data-name="Grupo 889287" transform="translate(172.765 87.82)">
          <path id="Trazado_619938" data-name="Trazado 619938" d="M535.606,1342.788a1.438,1.438,0,0,1-1.437-1.437v-2.875a1.438,1.438,0,0,1,2.875,0v2.875A1.438,1.438,0,0,1,535.606,1342.788Z" transform="translate(-534.169 -1337.038)" fill="#0b5999"/>
        </g>
        <g id="Grupo_889288" data-name="Grupo 889288">
          <path id="Trazado_619939" data-name="Trazado 619939" d="M426.759,1273.147a1.438,1.438,0,0,1-1.437-1.437v-5.718a1.438,1.438,0,1,1,2.875,0v5.718A1.438,1.438,0,0,1,426.759,1273.147Zm-172.765-.019a1.438,1.438,0,0,1-1.438-1.438v-5.719a1.438,1.438,0,1,1,2.875,0v5.719A1.438,1.438,0,0,1,253.994,1273.128Zm172.765-17.135a1.438,1.438,0,0,1-1.437-1.438v-5.72a1.438,1.438,0,0,1,2.875,0v5.72A1.439,1.439,0,0,1,426.759,1255.993Zm-172.765-.021a1.438,1.438,0,0,1-1.438-1.438v-5.718a1.438,1.438,0,0,1,2.875,0v5.718A1.438,1.438,0,0,1,253.994,1255.973Zm172.765-17.135a1.438,1.438,0,0,1-1.437-1.438v-5.718a1.438,1.438,0,1,1,2.875,0v5.718A1.438,1.438,0,0,1,426.759,1238.838Zm-172.765-.019a1.438,1.438,0,0,1-1.438-1.437v-5.719a1.438,1.438,0,1,1,2.875,0v5.719A1.438,1.438,0,0,1,253.994,1238.818Zm172.765-17.135a1.438,1.438,0,0,1-1.437-1.438v-5.719a1.438,1.438,0,1,1,2.875,0v5.719A1.438,1.438,0,0,1,426.759,1221.684Zm-172.765-.021a1.438,1.438,0,0,1-1.438-1.437v-5.718a1.438,1.438,0,0,1,2.875,0v5.718A1.438,1.438,0,0,1,253.994,1221.663Zm171.78-17a1.436,1.436,0,0,1-1.327-.884,11.366,11.366,0,0,0-2.464-3.673q-.22-.22-.455-.431a1.437,1.437,0,0,1,1.918-2.141c.194.174.384.354.568.537a14.222,14.222,0,0,1,3.086,4.6,1.438,1.438,0,0,1-1.326,1.991Zm-170.788-.018a1.439,1.439,0,0,1-1.326-1.993,14.18,14.18,0,0,1,3.077-4.58q.285-.286.586-.554a1.437,1.437,0,1,1,1.913,2.145c-.16.142-.316.29-.468.442a11.339,11.339,0,0,0-2.456,3.657A1.439,1.439,0,0,1,254.986,1204.641Zm156.878-7.878h-5.718a1.438,1.438,0,0,1,0-2.875h5.718a1.438,1.438,0,1,1,0,2.875Zm-17.155,0h-5.718a1.438,1.438,0,0,1,0-2.875h5.718a1.438,1.438,0,1,1,0,2.875Zm-17.154,0h-5.718a1.438,1.438,0,0,1,0-2.875h5.718a1.438,1.438,0,0,1,0,2.875Zm-17.155,0h-5.718a1.438,1.438,0,0,1,0-2.875H360.4a1.438,1.438,0,0,1,0,2.875Zm-17.155,0h-5.718a1.438,1.438,0,0,1,0-2.875h5.718a1.438,1.438,0,0,1,0,2.875Zm-17.154,0h-5.718a1.438,1.438,0,1,1,0-2.875h5.718a1.438,1.438,0,1,1,0,2.875Zm-17.155,0h-5.718a1.438,1.438,0,1,1,0-2.875h5.718a1.438,1.438,0,1,1,0,2.875Zm-17.154,0h-5.719a1.438,1.438,0,0,1,0-2.875h5.719a1.438,1.438,0,0,1,0,2.875Zm-17.155,0h-5.719a1.438,1.438,0,0,1,0-2.875h5.719a1.438,1.438,0,0,1,0,2.875Z" transform="translate(-252.556 -1193.888)" fill="#0b5999"/>
        </g>
        <g id="Grupo_889289" data-name="Grupo 889289" transform="translate(0 87.82)">
          <path id="Trazado_619940" data-name="Trazado 619940" d="M253.994,1342.788a1.438,1.438,0,0,1-1.438-1.437v-2.875a1.438,1.438,0,0,1,2.875,0v2.875A1.438,1.438,0,0,1,253.994,1342.788Z" transform="translate(-252.556 -1337.038)" fill="#0b5999"/>
        </g>
      </g>
      <g id="Grupo_889293" data-name="Grupo 889293" transform="translate(544.334 1153.516)">
        <g id="Grupo_889291" data-name="Grupo 889291" transform="translate(0 5.73)">
          <path id="Trazado_619941" data-name="Trazado 619941" d="M413.924,1423.953h-147.1a14.275,14.275,0,0,1-14.273-14.273v-73.548h2.875v73.548a11.4,11.4,0,0,0,11.4,11.4h147.1a11.4,11.4,0,0,0,11.4-11.4v-74.985h22.9v2.875H428.2v72.11a14.274,14.274,0,0,1-14.273,14.273Z" transform="translate(-252.556 -1334.695)" fill="#0b5999"/>
        </g>
        <g id="Grupo_889292" data-name="Grupo 889292" transform="translate(193.572)">
          <path id="Trazado_619942" data-name="Trazado 619942" d="M568.085,1339.69l12.413-7.168-12.413-7.168Z" transform="translate(-568.085 -1325.354)" fill="#0b5999"/>
        </g>
      </g>
      <g id="Grupo_895292" data-name="Grupo 895292" transform="translate(2545.404 944.604)">
        <path id="Trazado_623883" data-name="Trazado 623883" d="M-1888.206,161.165h-45.972c-4.547,0-8.233,4.472-8.233,9.989V259.88c0,5.517,3.686,9.989,8.233,9.989h60.54c4.547,0,8.234-4.472,8.234-9.989V189.9C-1873.006,180.332-1881.776,169.29-1888.206,161.165Z" fill="#fff"/>
        <rect id="Rectángulo_300773" data-name="Rectángulo 300773" width="62.872" height="24.091" rx="2.681" transform="translate(-1958.276 181.143)" fill="#70a1e8"/>
        <text id="_.TXT" data-name=".TXT" transform="translate(-1944.367 199.857)" fill="#fff" font-size="18.411" font-family="SegoeUI, Segoe UI"><tspan x="0" y="0">.TXT</tspan></text>
        <path id="Trazado_623884" data-name="Trazado 623884" d="M-1888.206,161.165v20.3c0,4.547,3,8.234,6.693,8.234h15.785Z" fill="#e5e5e5"/>
        <line id="Línea_488" data-name="Línea 488" x2="48.34" transform="translate(-1927.192 219.362)" fill="none" stroke="#e5e5e5" stroke-linecap="round" stroke-miterlimit="10" stroke-width="4"/>
        <line id="Línea_489" data-name="Línea 489" x2="48.34" transform="translate(-1927.192 229.801)" fill="none" stroke="#e5e5e5" stroke-linecap="round" stroke-miterlimit="10" stroke-width="4"/>
        <line id="Línea_490" data-name="Línea 490" x2="48.34" transform="translate(-1927.192 240.241)" fill="none" stroke="#e5e5e5" stroke-linecap="round" stroke-miterlimit="10" stroke-width="4"/>
        <line id="Línea_491" data-name="Línea 491" x2="48.34" transform="translate(-1927.192 250.681)" fill="none" stroke="#e5e5e5" stroke-linecap="round" stroke-miterlimit="10" stroke-width="4"/>
      </g>
    </g>
    <g id="Grupo_889281" data-name="Grupo 889281" transform="translate(605.368 1085.039)">
      <rect id="Rectángulo_299466" data-name="Rectángulo 299466" width="146.687" height="146.687" rx="10.516" transform="translate(1.438 1.438)" fill="#21cbae"/>
      <path id="Trazado_619933" data-name="Trazado 619933" d="M746.564,1364.7H612.779a7.9,7.9,0,0,1-7.889-7.889V1223.03a7.9,7.9,0,0,1,7.889-7.889H746.564a7.9,7.9,0,0,1,7.889,7.889v133.785A7.9,7.9,0,0,1,746.564,1364.7ZM612.779,1218.016a5.019,5.019,0,0,0-5.014,5.014v133.785a5.019,5.019,0,0,0,5.014,5.014H746.564a5.019,5.019,0,0,0,5.014-5.014V1223.03a5.019,5.019,0,0,0-5.014-5.014Z" transform="translate(-604.89 -1215.141)" fill="#fff"/>
    </g>
    <g id="Grupo_889285" data-name="Grupo 889285" transform="translate(592.33 1154.069)">
      <g id="Grupo_889282" data-name="Grupo 889282" transform="translate(172.765)">
        <path id="Trazado_619934" data-name="Trazado 619934" d="M866.687,1333.415a1.438,1.438,0,0,1-1.437-1.437V1329.1a1.437,1.437,0,1,1,2.875,0v2.875A1.438,1.438,0,0,1,866.687,1333.415Z" transform="translate(-865.25 -1327.664)" fill="#21cbae"/>
      </g>
      <g id="Grupo_889283" data-name="Grupo 889283" transform="translate(0 14.311)">
        <path id="Trazado_619935" data-name="Trazado 619935" d="M742.945,1430.252h-5.718a1.438,1.438,0,1,1,0-2.876h5.718a1.438,1.438,0,1,1,0,2.876Zm-17.155,0h-5.718a1.438,1.438,0,1,1,0-2.876h5.718a1.438,1.438,0,1,1,0,2.876Zm-17.154,0h-5.718a1.438,1.438,0,0,1,0-2.876h5.718a1.438,1.438,0,0,1,0,2.876Zm-17.155,0h-5.718a1.438,1.438,0,0,1,0-2.876h5.718a1.438,1.438,0,0,1,0,2.876Zm-17.155,0h-5.718a1.438,1.438,0,0,1,0-2.876h5.718a1.438,1.438,0,0,1,0,2.876Zm-17.155,0h-5.718a1.438,1.438,0,1,1,0-2.876h5.718a1.438,1.438,0,0,1,0,2.876Zm-17.155,0H634.3a1.438,1.438,0,1,1,0-2.876h5.718a1.438,1.438,0,0,1,0,2.876Zm-17.155,0h-5.718a1.438,1.438,0,1,1,0-2.876h5.718a1.438,1.438,0,1,1,0,2.876Zm-17.154,0h-5.718a1.438,1.438,0,1,1,0-2.876h5.718a1.438,1.438,0,0,1,0,2.876Zm-16.347-3.262a1.427,1.427,0,0,1-.956-.365q-.3-.268-.586-.553a14.193,14.193,0,0,1-3.077-4.58,1.437,1.437,0,1,1,2.651-1.11,11.37,11.37,0,0,0,2.458,3.657c.152.151.308.3.467.442a1.437,1.437,0,0,1-.958,2.51Zm164.208-.013a1.438,1.438,0,0,1-.96-2.508c.156-.14.309-.283.458-.433a11.349,11.349,0,0,0,2.463-3.672,1.438,1.438,0,0,1,2.653,1.107,14.225,14.225,0,0,1-3.085,4.6q-.279.278-.57.539A1.437,1.437,0,0,1,753.569,1426.977ZM585.074,1411.07a1.438,1.438,0,0,1-1.437-1.437v-5.718a1.438,1.438,0,0,1,2.875,0v5.718A1.438,1.438,0,0,1,585.074,1411.07Zm172.765-.02a1.438,1.438,0,0,1-1.437-1.437v-5.72a1.437,1.437,0,1,1,2.875,0v5.72A1.438,1.438,0,0,1,757.84,1411.05Zm-172.765-17.136a1.438,1.438,0,0,1-1.437-1.437v-5.718a1.438,1.438,0,0,1,2.875,0v5.718A1.438,1.438,0,0,1,585.074,1393.915Zm172.765-.02a1.438,1.438,0,0,1-1.437-1.437v-5.718a1.437,1.437,0,1,1,2.875,0v5.718A1.438,1.438,0,0,1,757.84,1393.895ZM585.074,1376.76a1.438,1.438,0,0,1-1.437-1.437V1369.6a1.438,1.438,0,0,1,2.875,0v5.718A1.438,1.438,0,0,1,585.074,1376.76Zm172.765-.019a1.438,1.438,0,0,1-1.437-1.438v-5.719a1.437,1.437,0,1,1,2.875,0v5.719A1.438,1.438,0,0,1,757.84,1376.741ZM585.074,1359.6a1.438,1.438,0,0,1-1.437-1.437v-5.718a1.438,1.438,0,0,1,2.875,0v5.718A1.438,1.438,0,0,1,585.074,1359.6Zm172.765-.019a1.438,1.438,0,0,1-1.437-1.438v-5.718a1.437,1.437,0,1,1,2.875,0v5.718A1.438,1.438,0,0,1,757.84,1359.586Z" transform="translate(-583.637 -1350.992)" fill="#21cbae"/>
      </g>
      <g id="Grupo_889284" data-name="Grupo 889284">
        <path id="Trazado_619936" data-name="Trazado 619936" d="M585.074,1333.415a1.438,1.438,0,0,1-1.437-1.437V1329.1a1.438,1.438,0,1,1,2.875,0v2.875A1.438,1.438,0,0,1,585.074,1333.415Z" transform="translate(-583.637 -1327.664)" fill="#21cbae"/>
      </g>
    </g>
    <g id="Grupo_889303" data-name="Grupo 889303" transform="translate(592.33 1072)">
      <g id="Grupo_889301" data-name="Grupo 889301">
        <path id="Trazado_619948" data-name="Trazado 619948" d="M779.306,1283.146H756.4v-74.985a11.4,11.4,0,0,0-11.4-11.4h-147.1a11.4,11.4,0,0,0-11.4,11.4v73.548h-2.875v-73.548a14.274,14.274,0,0,1,14.273-14.273H745a14.273,14.273,0,0,1,14.272,14.273v72.11h20.03Z" transform="translate(-583.636 -1193.888)" fill="#21cbae"/>
      </g>
      <g id="Grupo_895304" data-name="Grupo 895304" transform="translate(187.193 80.743)">
        <path id="Trazado_619949" data-name="Trazado 619949" d="M899.165,1339.69l12.413-7.168-12.413-7.168Z" transform="translate(-899.165 -1325.354)" fill="#21cbae"/>
      </g>
    </g>
    <g id="Grupo_895293" data-name="Grupo 895293" transform="translate(2470.784 943.303)">
      <path id="Trazado_623885" data-name="Trazado 623885" d="M-1769.085,161.165h-45.972c-4.547,0-8.233,4.472-8.233,9.989V259.88c0,5.517,3.686,9.989,8.233,9.989h60.54c4.548,0,8.234-4.472,8.234-9.989V189.9C-1753.885,180.332-1762.655,169.29-1769.085,161.165Z" fill="#fff"/>
      <rect id="Rectángulo_300774" data-name="Rectángulo 300774" width="62.872" height="24.091" rx="2.681" transform="translate(-1839.155 181.143)" fill="#71617d"/>
      <text id="_.XML" data-name=".XML" transform="translate(-1825.246 199.857)" fill="#fff" font-size="18.411" font-family="SegoeUI, Segoe UI"><tspan x="0" y="0">.XML</tspan></text>
      <path id="Trazado_623886" data-name="Trazado 623886" d="M-1769.085,161.165v20.3c0,4.547,3,8.234,6.693,8.234h15.785Z" fill="#e5e5e5"/>
      <line id="Línea_492" data-name="Línea 492" x2="48.34" transform="translate(-1808.07 219.362)" fill="none" stroke="#e5e5e5" stroke-linecap="round" stroke-miterlimit="10" stroke-width="4"/>
      <line id="Línea_493" data-name="Línea 493" x2="48.34" transform="translate(-1808.07 229.801)" fill="none" stroke="#e5e5e5" stroke-linecap="round" stroke-miterlimit="10" stroke-width="4"/>
      <line id="Línea_494" data-name="Línea 494" x2="48.34" transform="translate(-1808.07 240.241)" fill="none" stroke="#e5e5e5" stroke-linecap="round" stroke-miterlimit="10" stroke-width="4"/>
      <line id="Línea_495" data-name="Línea 495" x2="48.34" transform="translate(-1808.07 250.681)" fill="none" stroke="#e5e5e5" stroke-linecap="round" stroke-miterlimit="10" stroke-width="4"/>
    </g>
    <g id="Grupo_895302" data-name="Grupo 895302" transform="translate(-210 4.519)">
      <g id="Grupo_895301" data-name="Grupo 895301" transform="translate(1013.039 1079.52)">
        <rect id="Rectángulo_299464" data-name="Rectángulo 299464" width="146.687" height="146.687" rx="10.516" transform="translate(1.437 1.438)" fill="#0b5999"/>
        <path id="Trazado_619926" data-name="Trazado 619926" d="M1075.9,1364.7H942.115a7.9,7.9,0,0,1-7.889-7.889V1223.03a7.9,7.9,0,0,1,7.889-7.889H1075.9a7.9,7.9,0,0,1,7.889,7.889v133.785A7.9,7.9,0,0,1,1075.9,1364.7ZM942.115,1218.016a5.019,5.019,0,0,0-5.014,5.014v133.785a5.019,5.019,0,0,0,5.014,5.014H1075.9a5.02,5.02,0,0,0,5.014-5.014V1223.03a5.02,5.02,0,0,0-5.014-5.014Z" transform="translate(-934.226 -1215.141)" fill="#fff"/>
      </g>
      <g id="Grupo_895300" data-name="Grupo 895300" transform="translate(1000 1147.134)">
        <g id="Grupo_889294" data-name="Grupo 889294" transform="translate(0 5.73)">
          <path id="Trazado_619943" data-name="Trazado 619943" d="M1074.34,1423.953h-147.1a14.274,14.274,0,0,1-14.272-14.273v-73.548h2.875v73.548a11.4,11.4,0,0,0,11.4,11.4h147.1a11.4,11.4,0,0,0,11.4-11.4v-74.985h22.9v2.875h-20.03v72.11a14.273,14.273,0,0,1-14.272,14.273Z" transform="translate(-912.972 -1334.695)" fill="#0b5999"/>
        </g>
        <g id="Grupo_889295" data-name="Grupo 889295" transform="translate(193.572)">
          <path id="Trazado_619944" data-name="Trazado 619944" d="M1228.5,1339.69l12.413-7.168-12.413-7.168Z" transform="translate(-1228.501 -1325.354)" fill="#0b5999"/>
        </g>
      </g>
      <g id="Grupo_895299" data-name="Grupo 895299" transform="translate(1000 1066.481)">
        <g id="Grupo_889297" data-name="Grupo 889297" transform="translate(172.765 87.82)">
          <path id="Trazado_619945" data-name="Trazado 619945" d="M1196.022,1342.788a1.438,1.438,0,0,1-1.437-1.437v-2.875a1.438,1.438,0,0,1,2.875,0v2.875A1.438,1.438,0,0,1,1196.022,1342.788Z" transform="translate(-1194.585 -1337.038)" fill="#0b5999"/>
        </g>
        <g id="Grupo_889298" data-name="Grupo 889298">
          <path id="Trazado_619946" data-name="Trazado 619946" d="M1087.175,1273.147a1.438,1.438,0,0,1-1.437-1.437v-5.718a1.437,1.437,0,1,1,2.875,0v5.718A1.438,1.438,0,0,1,1087.175,1273.147Zm-172.765-.019a1.438,1.438,0,0,1-1.437-1.438v-5.719a1.438,1.438,0,1,1,2.875,0v5.719A1.438,1.438,0,0,1,914.409,1273.128Zm172.765-17.135a1.438,1.438,0,0,1-1.437-1.438v-5.72a1.437,1.437,0,0,1,2.875,0v5.72A1.438,1.438,0,0,1,1087.175,1255.993Zm-172.765-.021a1.438,1.438,0,0,1-1.437-1.438v-5.718a1.438,1.438,0,0,1,2.875,0v5.718A1.439,1.439,0,0,1,914.409,1255.973Zm172.765-17.135a1.438,1.438,0,0,1-1.437-1.438v-5.718a1.437,1.437,0,1,1,2.875,0v5.718A1.438,1.438,0,0,1,1087.175,1238.838Zm-172.765-.019a1.438,1.438,0,0,1-1.437-1.437v-5.719a1.438,1.438,0,1,1,2.875,0v5.719A1.438,1.438,0,0,1,914.409,1238.818Zm172.765-17.135a1.438,1.438,0,0,1-1.437-1.438v-5.719a1.437,1.437,0,1,1,2.875,0v5.719A1.438,1.438,0,0,1,1087.175,1221.684Zm-172.765-.021a1.438,1.438,0,0,1-1.437-1.437v-5.718a1.438,1.438,0,0,1,2.875,0v5.718A1.438,1.438,0,0,1,914.409,1221.663Zm171.781-17a1.436,1.436,0,0,1-1.328-.884,11.354,11.354,0,0,0-2.465-3.673c-.146-.147-.3-.29-.454-.431a1.437,1.437,0,0,1,1.918-2.141c.194.174.383.354.568.537a14.222,14.222,0,0,1,3.086,4.6,1.438,1.438,0,0,1-.774,1.88A1.42,1.42,0,0,1,1086.19,1204.659Zm-170.788-.018a1.439,1.439,0,0,1-1.326-1.993,14.188,14.188,0,0,1,3.076-4.58q.286-.286.587-.554a1.437,1.437,0,1,1,1.913,2.145c-.159.142-.315.29-.467.442a11.341,11.341,0,0,0-2.456,3.657A1.44,1.44,0,0,1,915.4,1204.641Zm156.878-7.878h-5.718a1.438,1.438,0,1,1,0-2.875h5.718a1.438,1.438,0,1,1,0,2.875Zm-17.155,0h-5.718a1.438,1.438,0,1,1,0-2.875h5.718a1.438,1.438,0,1,1,0,2.875Zm-17.155,0h-5.718a1.438,1.438,0,0,1,0-2.875h5.718a1.438,1.438,0,1,1,0,2.875Zm-17.154,0H1015.1a1.438,1.438,0,0,1,0-2.875h5.718a1.438,1.438,0,0,1,0,2.875Zm-17.155,0h-5.718a1.438,1.438,0,0,1,0-2.875h5.718a1.438,1.438,0,0,1,0,2.875Zm-17.154,0h-5.719a1.438,1.438,0,0,1,0-2.875h5.719a1.438,1.438,0,0,1,0,2.875Zm-17.155,0h-5.719a1.438,1.438,0,0,1,0-2.875h5.719a1.438,1.438,0,0,1,0,2.875Zm-17.155,0h-5.718a1.438,1.438,0,1,1,0-2.875H952.2a1.438,1.438,0,1,1,0,2.875Zm-17.155,0h-5.718a1.438,1.438,0,1,1,0-2.875h5.718a1.438,1.438,0,1,1,0,2.875Z" transform="translate(-912.972 -1193.888)" fill="#0b5999"/>
        </g>
        <g id="Grupo_889299" data-name="Grupo 889299" transform="translate(0 87.82)">
          <path id="Trazado_619947" data-name="Trazado 619947" d="M914.409,1342.788a1.438,1.438,0,0,1-1.437-1.437v-2.875a1.438,1.438,0,0,1,2.875,0v2.875A1.438,1.438,0,0,1,914.409,1342.788Z" transform="translate(-912.972 -1337.038)" fill="#0b5999"/>
        </g>
      </g>
    </g>
    <g id="Grupo_895305" data-name="Grupo 895305" transform="translate(2544.619 942.303)">
      <path id="Trazado_623887" data-name="Trazado 623887" d="M-1652.421,161.165h-45.972c-4.547,0-8.233,4.472-8.233,9.989V259.88c0,5.517,3.686,9.989,8.233,9.989h60.54c4.548,0,8.234-4.472,8.234-9.989V189.9C-1637.221,180.332-1645.991,169.29-1652.421,161.165Z" fill="#fff"/>
      <rect id="Rectángulo_300775" data-name="Rectángulo 300775" width="62.872" height="24.091" rx="2.681" transform="translate(-1722.491 181.143)" fill="#8e789f"/>
      <text id="_.JSON" data-name=".JSON" transform="translate(-1716.582 199.857)" fill="#fff" font-size="18.411" font-family="SegoeUI, Segoe UI"><tspan x="0" y="0">.JSON</tspan></text>
      <path id="Trazado_623888" data-name="Trazado 623888" d="M-1652.421,161.165v20.3c0,4.547,3,8.234,6.693,8.234h15.785Z" fill="#e5e5e5"/>
      <line id="Línea_496" data-name="Línea 496" x2="48.34" transform="translate(-1691.406 219.362)" fill="none" stroke="#e5e5e5" stroke-linecap="round" stroke-miterlimit="10" stroke-width="4"/>
      <line id="Línea_497" data-name="Línea 497" x2="48.34" transform="translate(-1691.406 229.801)" fill="none" stroke="#e5e5e5" stroke-linecap="round" stroke-miterlimit="10" stroke-width="4"/>
      <line id="Línea_498" data-name="Línea 498" x2="48.34" transform="translate(-1691.406 240.241)" fill="none" stroke="#e5e5e5" stroke-linecap="round" stroke-miterlimit="10" stroke-width="4"/>
      <line id="Línea_499" data-name="Línea 499" x2="48.34" transform="translate(-1691.406 250.681)" fill="none" stroke="#e5e5e5" stroke-linecap="round" stroke-miterlimit="10" stroke-width="4"/>
    </g>
  </g>
</svg>
