<svg xmlns="http://www.w3.org/2000/svg" width="64.935" height="96.176" viewBox="0 0 64.935 96.176">
  <g id="Grupo_897689" data-name="Grupo 897689" transform="translate(10349.12 4591.129)">
    <g id="Grupo_894264" data-name="Grupo 894264" transform="translate(-10100.144 -4624.907)">
      <g id="Grupo_894248" data-name="Grupo 894248" transform="translate(-245.569 47.614)">
        <g id="Grupo_894247" data-name="Grupo 894247">
          <path id="Trazado_619598" data-name="Trazado 619598" d="M-242.972,101.537a29.06,29.06,0,0,1,29.06-29.06,29.06,29.06,0,0,1,29.06,29.06,28.926,28.926,0,0,1-5.572,17.111h0c-4.148,6.25-14.926,13.308-14.926,17.536v4.83a1.746,1.746,0,0,1-1.746,1.746h-13.632a1.746,1.746,0,0,1-1.746-1.746v-4.83c0-4.228-10.778-11.285-14.926-17.536h0A28.925,28.925,0,0,1-242.972,101.537Z" transform="translate(242.972 -72.477)" fill="#fdd305"/>
        </g>
      </g>
      <g id="Grupo_894249" data-name="Grupo 894249" transform="translate(-233.993 77.099)">
        <path id="Trazado_619599" data-name="Trazado 619599" d="M-187.284,201.7a190.193,190.193,0,0,1,.38-22.617,31.356,31.356,0,0,1-3.68.208,31.343,31.343,0,0,1-3.68-.208,190.128,190.128,0,0,1,.379,22.617l-.512-.024a194.763,194.763,0,0,0-.408-22.662c-8.619-1.2-12.477-6.081-13.169-10.689-.4-2.694.515-5.374,2.187-6.374a4.392,4.392,0,0,1,3.545-.355,9.1,9.1,0,0,1,5.218,4.731c1.4,2.741,2.232,7.293,2.71,12.233a30.535,30.535,0,0,0,3.729.218,30.531,30.531,0,0,0,3.729-.218c.478-4.941,1.308-9.492,2.711-12.233a9.1,9.1,0,0,1,5.218-4.731,4.393,4.393,0,0,1,3.545.355c1.672,1,2.592,3.68,2.187,6.374-.693,4.608-4.551,9.491-13.17,10.689a194.759,194.759,0,0,0-.408,22.662Zm9.8-39.8a4.7,4.7,0,0,0-1.3.192,8.583,8.583,0,0,0-4.9,4.471c-1.349,2.637-2.156,7.076-2.627,11.928,8.256-1.19,11.952-5.845,12.613-10.24.369-2.456-.466-4.974-1.943-5.857A3.55,3.55,0,0,0-177.489,161.9Zm-26.191,0a3.549,3.549,0,0,0-1.844.494c-1.477.883-2.312,3.4-1.943,5.857.661,4.395,4.356,9.05,12.613,10.24-.471-4.852-1.277-9.291-2.626-11.928a8.582,8.582,0,0,0-4.9-4.471A4.7,4.7,0,0,0-203.679,161.9Z" transform="translate(208.068 -161.383)" fill="#fff"/>
      </g>
      <g id="Grupo_894250" data-name="Grupo 894250" transform="translate(-212.214 51.524)">
        <path id="Trazado_619600" data-name="Trazado 619600" d="M-122.468,111.084a1.667,1.667,0,0,1-1.667-1.667,22.524,22.524,0,0,0-17-21.866,1.668,1.668,0,0,1-1.208-2.026,1.667,1.667,0,0,1,2.026-1.207,25.856,25.856,0,0,1,19.517,25.1A1.667,1.667,0,0,1-122.468,111.084Z" transform="translate(142.395 -84.266)" fill="#fe9"/>
      </g>
      <g id="Grupo_894251" data-name="Grupo 894251" transform="translate(-217.069 50.739)">
        <path id="Trazado_619601" data-name="Trazado 619601" d="M-157.035,83.567a1.667,1.667,0,0,0,1.667,1.667,1.667,1.667,0,0,0,1.667-1.667,1.667,1.667,0,0,0-1.667-1.667A1.667,1.667,0,0,0-157.035,83.567Z" transform="translate(157.035 -81.9)" fill="#fe9"/>
      </g>
      <g id="Grupo_894254" data-name="Grupo 894254" transform="translate(-245.513 78.393)" opacity="0.55" style="mix-blend-mode: multiply;isolation: isolate">
        <g id="Grupo_894253" data-name="Grupo 894253" transform="translate(0 0)">
          <g id="Grupo_894252" data-name="Grupo 894252">
            <path id="Trazado_619602" data-name="Trazado 619602" d="M-184.8,165.284c-1.6,11.916-11.224,24.252-29,24.252s-27.041-12.913-29-24.252a28.909,28.909,0,0,0,5.516,15.393h0c4.148,6.25,14.926,13.308,14.926,17.536v4.83a1.746,1.746,0,0,0,1.746,1.746h13.632a1.746,1.746,0,0,0,1.746-1.746v-4.83c0-4.228,10.778-11.285,14.926-17.536h0A28.906,28.906,0,0,0-184.8,165.284Z" transform="translate(242.804 -165.284)" fill="#ffc043"/>
          </g>
        </g>
      </g>
      <g id="Grupo_894255" data-name="Grupo 894255" transform="translate(-225.757 113.384)">
        <path id="Trazado_619603" data-name="Trazado 619603" d="M-164.737,270.8h-18.5v8.816a7.586,7.586,0,0,0,1.181,4.065h0a7.95,7.95,0,0,0,6.712,3.689h2.712a7.949,7.949,0,0,0,6.711-3.689h0a7.586,7.586,0,0,0,1.181-4.065Z" transform="translate(183.234 -270.795)" fill="#727997"/>
      </g>
      <g id="Grupo_894257" data-name="Grupo 894257" transform="translate(-226.912 115.102)">
        <g id="Grupo_894256" data-name="Grupo 894256" transform="translate(0)">
          <path id="Trazado_619604" data-name="Trazado 619604" d="M-185.563,280.2a1.13,1.13,0,0,0,.16-.006l18.5-1.918a1.108,1.108,0,0,0,.985-1.267,1.2,1.2,0,0,0-1.3-1.03l-18.5,1.918a1.109,1.109,0,0,0-.985,1.268A1.206,1.206,0,0,0-185.563,280.2Z" transform="translate(186.715 -275.974)" fill="#475577"/>
        </g>
      </g>
      <g id="Grupo_894259" data-name="Grupo 894259" transform="translate(-226.912 119.137)">
        <g id="Grupo_894258" data-name="Grupo 894258" transform="translate(0)">
          <path id="Trazado_619605" data-name="Trazado 619605" d="M-185.563,292.368a1.13,1.13,0,0,0,.16-.006l18.5-1.918a1.108,1.108,0,0,0,.985-1.267,1.2,1.2,0,0,0-1.3-1.03l-18.5,1.917a1.109,1.109,0,0,0-.985,1.267A1.206,1.206,0,0,0-185.563,292.368Z" transform="translate(186.715 -288.141)" fill="#475577"/>
        </g>
      </g>
      <g id="Grupo_894261" data-name="Grupo 894261" transform="translate(-226.173 123.23)">
        <g id="Grupo_894260" data-name="Grupo 894260" transform="translate(0 0)">
          <path id="Trazado_619606" data-name="Trazado 619606" d="M-183.334,304.611a1.172,1.172,0,0,0,.16-.006l17.533-1.818a1.108,1.108,0,0,0,.985-1.268,1.2,1.2,0,0,0-1.3-1.03l-17.533,1.818a1.108,1.108,0,0,0-.985,1.267A1.206,1.206,0,0,0-183.334,304.611Z" transform="translate(184.487 -300.484)" fill="#475577"/>
        </g>
      </g>
      <g id="Grupo_894263" data-name="Grupo 894263" transform="translate(-246.857 35.278)">
        <line id="Línea_415" data-name="Línea 415" y2="9.132" transform="translate(30.348 0)" fill="#ffcd5c" stroke="#ffc043" stroke-linecap="round" stroke-linejoin="round" stroke-width="3"/>
        <g id="Grupo_894262" data-name="Grupo 894262" transform="translate(0 3.637)">
          <line id="Línea_416" data-name="Línea 416" x1="3.688" y2="8.354" transform="translate(43.128)" fill="#ffcd5c" stroke="#ffc043" stroke-linecap="round" stroke-linejoin="round" stroke-width="3"/>
          <line id="Línea_417" data-name="Línea 417" x1="6.748" y2="6.153" transform="translate(53.949 10.104)" fill="#ffcd5c" stroke="#ffc043" stroke-linecap="round" stroke-linejoin="round" stroke-width="3"/>
          <line id="Línea_418" data-name="Línea 418" x2="3.688" y2="8.354" transform="translate(13.88)" fill="#ffcd5c" stroke="#ffc043" stroke-linecap="round" stroke-linejoin="round" stroke-width="3"/>
          <line id="Línea_419" data-name="Línea 419" x2="6.748" y2="6.153" transform="translate(0 10.104)" fill="#ffcd5c" stroke="#ffc043" stroke-linecap="round" stroke-linejoin="round" stroke-width="3"/>
        </g>
      </g>
    </g>
  </g>
</svg>
