<svg xmlns="http://www.w3.org/2000/svg" width="1070" height="383.033" viewBox="0 0 1070 383.033">
  <g id="Grupo_895114" data-name="Grupo 895114" transform="translate(-52.87 -26.085)">
    <line id="Línea_453" data-name="Línea 453" x2="130.193" transform="translate(835.29 217.522)" fill="none" stroke="#ef3c79" stroke-miterlimit="10" stroke-width="2"/>
    <path id="Trazado_623048" data-name="Trazado 623048" d="M977.528,362.048l-93.47-140.383L746.5,85" transform="translate(-48.768 -4.142)" fill="none" stroke="#ef3c79" stroke-miterlimit="10" stroke-width="2"/>
    <path id="Trazado_623049" data-name="Trazado 623049" d="M186,222.481H830.7L922.316,90" transform="translate(-9.36 -4.494)" fill="none" stroke="#ef3c79" stroke-miterlimit="10" stroke-width="2"/>
    <line id="Línea_454" data-name="Línea 454" y1="157.669" x2="82.311" transform="translate(122.684 80.858)" fill="#fff" stroke="#ef3c79" stroke-miterlimit="10" stroke-width="2"/>
    <line id="Línea_455" data-name="Línea 455" x2="82.311" y2="161.479" transform="translate(120.67 192.708)" fill="#fff" stroke="#ef3c79" stroke-miterlimit="10" stroke-width="2"/>
    <rect id="Rectángulo_300740" data-name="Rectángulo 300740" width="146.975" height="42.766" rx="21.383" transform="translate(585.424 26.085)" fill="#ef3c79"/>
    <rect id="Rectángulo_300741" data-name="Rectángulo 300741" width="146.975" height="42.766" rx="21.383" transform="translate(145.238 26.085)" fill="#ef3c79"/>
    <rect id="Rectángulo_300742" data-name="Rectángulo 300742" width="146.975" height="42.766" rx="21.383" transform="translate(145.238 362.634)" fill="#ef3c79"/>
    <rect id="Rectángulo_300743" data-name="Rectángulo 300743" width="146.975" height="42.766" rx="21.383" transform="translate(897.801 26.085)" fill="#ef3c79"/>
    <rect id="Rectángulo_300744" data-name="Rectángulo 300744" width="146.975" height="42.766" rx="21.383" transform="translate(897.801 366.353)" fill="#ef3c79"/>
    <rect id="Rectángulo_300745" data-name="Rectángulo 300745" width="146.975" height="42.766" rx="21.383" transform="translate(975.895 197.149)" fill="#ef3c79"/>
    <rect id="Rectángulo_300746" data-name="Rectángulo 300746" width="185.009" height="78.629" rx="10.5" transform="translate(52.87 180.029)" fill="#21cbae"/>
    <rect id="Rectángulo_300747" data-name="Rectángulo 300747" width="185.009" height="78.629" rx="10.5" transform="translate(389.077 180.029)" fill="#21cbae"/>
    <text id="ID" transform="translate(210.734 53.993)" fill="#fff" font-size="16" font-family="Roboto-Bold, Roboto" font-weight="700"><tspan x="0" y="0">ID</tspan></text>
    <text id="_1" data-name="1" transform="translate(357.639 205.295)" fill="#0b5999" font-size="21" font-family="Roboto-Bold, Roboto" font-weight="700"><tspan x="0" y="0">1</tspan></text>
    <text id="N" transform="translate(591.922 205.295)" fill="#0b5999" font-size="21" font-family="Roboto-Bold, Roboto" font-weight="700"><tspan x="0" y="0">N</tspan></text>
    <text id="Descripción" transform="translate(174.287 387.752)" fill="#fff" font-size="16" font-family="Roboto-Bold, Roboto" font-weight="700"><tspan x="0" y="0">Descripción</tspan></text>
    <text id="sexo" transform="translate(127.77 223.429)" fill="#fff" font-size="16" font-family="Roboto-Bold, Roboto" font-weight="700"><tspan x="0" y="0">sexo</tspan></text>
    <text id="Tiene_asociado" data-name="Tiene
asociado" transform="translate(480.183 213.388)" fill="#fff" font-size="16" font-family="Roboto-Bold, Roboto" font-weight="700"><tspan x="-20.199" y="0">Tiene</tspan><tspan x="-32.539" y="19">asociado</tspan></text>
    <text id="Nombre" transform="translate(1048.224 223.429)" fill="#fff" font-size="16" font-family="Roboto-Bold, Roboto" font-weight="700"><tspan x="-28.844" y="0">Nombre</tspan></text>
    <text id="Contacto" transform="translate(969.732 391.809)" fill="#fff" font-size="16" font-family="Roboto-Bold, Roboto" font-weight="700"><tspan x="-32.512" y="0">Contacto</tspan></text>
    <text id="ID_Sexo" data-name="ID Sexo" transform="translate(657.377 52.125)" fill="#fff" font-size="16" font-family="Roboto-Bold, Roboto" font-weight="700"><tspan x="-27.203" y="0">ID Sexo</tspan></text>
    <text id="Identificación" transform="translate(969.408 52.125)" fill="#fff" font-size="16" font-family="Roboto-Bold, Roboto" font-weight="700"><tspan x="-49.094" y="0">Identificación</tspan></text>
    <line id="Línea_456" data-name="Línea 456" y1="14.875" x2="16.734" transform="translate(700.056 202.647)" fill="none" stroke="#ef3c79" stroke-miterlimit="10" stroke-width="2"/>
    <line id="Línea_457" data-name="Línea 457" x1="16.734" y1="14.875" transform="translate(700.056 216.593)" fill="none" stroke="#ef3c79" stroke-miterlimit="10" stroke-width="2"/>
    <line id="Línea_458" data-name="Línea 458" y1="22.313" transform="translate(701.451 205.901)" fill="none" stroke="#ef3c79" stroke-miterlimit="10" stroke-width="2"/>
    <line id="Línea_459" data-name="Línea 459" y1="22.313" transform="translate(253.804 205.901)" fill="none" stroke="#ef3c79" stroke-miterlimit="10" stroke-width="2"/>
    <line id="Línea_460" data-name="Línea 460" y1="22.313" transform="translate(246.832 205.901)" fill="none" stroke="#ef3c79" stroke-miterlimit="10" stroke-width="2"/>
    <rect id="Rectángulo_300748" data-name="Rectángulo 300748" width="185.009" height="78.629" rx="10.5" transform="translate(715.396 180.029)" fill="#21cbae"/>
    <text id="Clientes" transform="translate(807.839 223.429)" fill="#fff" font-size="16" font-family="Roboto-Bold, Roboto" font-weight="700"><tspan x="-29.422" y="0">Clientes</tspan></text>
    <path id="Trazado_623050" data-name="Trazado 623050" d="M205.593,86.582l14.343,6.638.291-16.887Z" transform="translate(-10.738 -3.533)" fill="#ef3c79"/>
    <path id="Trazado_623051" data-name="Trazado 623051" d="M744.177,93.959,755.5,82.929l-15.671-6.3Z" transform="translate(-48.299 -3.554)" fill="#ef3c79"/>
    <path id="Trazado_623052" data-name="Trazado 623052" d="M968.757,88.476l14.593,6.069-.373-16.885Z" transform="translate(-64.395 -3.626)" fill="#ef3c79"/>
    <path id="Trazado_623053" data-name="Trazado 623053" d="M1026.705,222.148l-.462,15.8,15.64-6.374Z" transform="translate(-68.436 -13.785)" fill="#ef3c79"/>
    <path id="Trazado_623054" data-name="Trazado 623054" d="M216.583,367.144l-14.116,7.109,13.047,10.724Z" transform="translate(-10.518 -23.979)" fill="#ef3c79"/>
    <path id="Trazado_623055" data-name="Trazado 623055" d="M979.783,376.667l13.514-8.2,2.172,16.749Z" transform="translate(-65.17 -24.073)" fill="#ef3c79"/>
  </g>
</svg>
