<svg xmlns="http://www.w3.org/2000/svg" xmlns:xlink="http://www.w3.org/1999/xlink" width="650" height="470" viewBox="0 0 650 470">
  <defs>
    <clipPath id="clip-path">
      <rect id="Rectángulo_301450" data-name="Rectángulo 301450" width="650" height="470" transform="translate(475 6941)" fill="#fff" stroke="#707070" stroke-width="1"/>
    </clipPath>
    <linearGradient id="linear-gradient" y1="0.5" x2="1" y2="0.5" gradientUnits="objectBoundingBox">
      <stop offset="0" stop-color="#a1a3a4"/>
      <stop offset="1" stop-color="#86878a"/>
    </linearGradient>
    <linearGradient id="linear-gradient-3" y1="0.5" x2="1" y2="0.5" gradientUnits="objectBoundingBox">
      <stop offset="0" stop-color="#d1d3d4"/>
      <stop offset="1" stop-color="#a7a9ac"/>
    </linearGradient>
    <linearGradient id="linear-gradient-5" y1="0.5" x2="1" y2="0.5" gradientUnits="objectBoundingBox">
      <stop offset="0" stop-color="#7576ff"/>
      <stop offset="1" stop-color="#6047a7"/>
    </linearGradient>
    <linearGradient id="linear-gradient-6" y1="0.5" x2="1" y2="0.5" gradientUnits="objectBoundingBox">
      <stop offset="0" stop-color="#aaa8a8"/>
      <stop offset="1" stop-color="#8f8b8b"/>
    </linearGradient>
    <linearGradient id="linear-gradient-7" x1="0.124" y1="0.124" x2="0.861" y2="0.861" gradientUnits="objectBoundingBox">
      <stop offset="0" stop-color="#c5c6cb"/>
      <stop offset="1" stop-color="#020305"/>
    </linearGradient>
    <linearGradient id="linear-gradient-8" x1="0.023" y1="0.023" x2="0.992" y2="0.992" gradientUnits="objectBoundingBox">
      <stop offset="0" stop-color="#a4a6ab"/>
      <stop offset="1" stop-color="#0d0e0f"/>
    </linearGradient>
    <linearGradient id="linear-gradient-9" x1="-0.67" y1="-0.67" x2="1.769" y2="1.769" xlink:href="#linear-gradient-7"/>
  </defs>
  <g id="Enmascarar_grupo_114" data-name="Enmascarar grupo 114" transform="translate(-475 -6941)" clip-path="url(#clip-path)">
    <g id="Grupo_897679" data-name="Grupo 897679" transform="translate(494.668 6955.75)">
      <g id="Grupo_897675" data-name="Grupo 897675" transform="translate(0 0)">
        <text id="LOREM" transform="translate(270.405 347.809)" fill="#fff" font-size="8" font-family="OpenSans-Bold, Open Sans" font-weight="700" letter-spacing="0.2em"><tspan x="0" y="0">LOREM</tspan></text>
        <g id="Grupo_897665" data-name="Grupo 897665" transform="translate(7.565 7.566)" opacity="0.2" style="mix-blend-mode: multiply;isolation: isolate">
          <path id="Trazado_624688" data-name="Trazado 624688" d="M518.223,500.971c-.861-1.026-2.673-1.736-5.407-2.124a36.648,36.648,0,0,0-3.723-.312q-1.042-.038-2.191-.039H123.036q-2.293,0-4.153.154c-3.716.307-6.121,1.072-7.169,2.286l-21.041,24.35h0c-2.02,1.971-1.167,8.544-.579,9.829.5,1.094,1.433,3.129,10.279,3.129H528.915c8.848,0,9.793-2.026,10.3-3.114.593-1.271,1.254-8.04-.533-9.809Z" transform="translate(-23.806 -37.099)" fill="#6d6e71"/>
          <path id="Trazado_624689" data-name="Trazado 624689" d="M600.985,26.108H35.785A13.557,13.557,0,0,0,22.243,39.649V381.7a13.556,13.556,0,0,0,13.542,13.54H274.723v32.812H216.4a48.539,48.539,0,0,0-6.618.387c-3.064.429-5.1,1.214-6.08,2.349l-23.6,27.308c-2.266,2.208-1.309,9.581-.649,11.022.562,1.228,1.607,3.509,11.527,3.509H445.834c9.924,0,10.982-2.272,11.55-3.492.665-1.425,1.407-9.017-.6-11L433.843,430.83a7.791,7.791,0,0,0-4.348-2.078,34.208,34.208,0,0,0-5.892-.654q-1.168-.043-2.456-.043h-59.1V395.243H600.985a13.556,13.556,0,0,0,13.541-13.54V39.649A13.556,13.556,0,0,0,600.985,26.108Z" transform="translate(-22.243 -26.108)" fill="#6d6e71"/>
          <path id="Trazado_624690" data-name="Trazado 624690" d="M623.534,521.27a19.737,19.737,0,0,0-1.779-2.992,24.661,24.661,0,0,0-1.615-1.988c-.222-.246-.465-.481-.7-.72h0c-6.807-7-18.4-11.3-27.865-11.286-9.792.01-17.794,4.619-17.9,12.055a15.484,15.484,0,0,0,3.3,9.075c.118.165.228.33.352.493.3.391.621.774.951,1.157.18.208.358.416.547.622.326.356.668.705,1.022,1.052.229.225.466.446.706.667.354.325.713.646,1.09.961.281.234.577.462.87.691.374.29.744.581,1.137.862.353.251.725.488,1.092.73s.728.493,1.112.726q1.108.673,2.292,1.283c.309.159.635.3.951.451.539.26,1.079.519,1.64.758.363.154.739.293,1.111.439.541.212,1.084.419,1.641.61.389.134.784.256,1.181.378q.851.264,1.723.493c.4.106.807.206,1.216.3.608.14,1.225.262,1.848.375.4.073.795.15,1.2.212.69.106,1.391.184,2.1.255.351.036.7.084,1.049.111,1.059.08,2.128.129,3.214.128h.019a30.474,30.474,0,0,0,8.266-1.053c.541-.153,1.052-.325,1.548-.509a13.955,13.955,0,0,0,5.612-3.6,10.107,10.107,0,0,0,1.647-2.347,9.783,9.783,0,0,0,.944-3.521,11.846,11.846,0,0,0-.356-3.846A15.759,15.759,0,0,0,623.534,521.27Z" transform="translate(-35.073 -37.234)" fill="#6d6e71"/>
        </g>
        <g id="Grupo_897674" data-name="Grupo 897674">
          <g id="Grupo_897673" data-name="Grupo 897673">
            <g id="Grupo_897667" data-name="Grupo 897667" transform="translate(66.711 464.843)">
              <path id="Trazado_624691" data-name="Trazado 624691" d="M532.077,521.1l-20.459-24.35c-1.378-1.641-5.187-2.474-11.321-2.474H116.431c-6.115,0-9.925.82-11.322,2.44L84.068,521.067c-2.02,1.97-1.166,8.544-.578,9.83.5,1.094,1.432,3.128,10.279,3.128H522.31c8.849,0,9.793-2.025,10.3-3.113C533.2,529.641,533.864,522.871,532.077,521.1Z" transform="translate(-82.798 -494.278)" fill="url(#linear-gradient)"/>
              <path id="Trazado_624692" data-name="Trazado 624692" d="M532.085,521.1l-20.459-24.35c-1.378-1.641-5.187-2.474-11.321-2.474H116.44c-6.115,0-9.925.82-11.322,2.44L84.076,521.067a3.576,3.576,0,0,0-.578,3.858c.5,1.095,1.432,3.129,10.278,3.129H522.319c8.849,0,9.793-2.026,10.3-3.113A3.573,3.573,0,0,0,532.085,521.1Z" transform="translate(-82.807 -494.278)" fill="#b0b2b4"/>
              <g id="Grupo_897666" data-name="Grupo 897666" transform="translate(13.53 3.931)">
                <path id="Trazado_624693" data-name="Trazado 624693" d="M139.338,498.3H121.96c-2.028,0-3.909.279-4.2.625l-1.683,1.988c-.3.354,1.126.641,3.183.641h17.625c2.057,0,3.936-.287,4.2-.641l1.467-1.988C142.8,498.582,141.366,498.3,139.338,498.3Z" transform="translate(-97.102 -498.303)" fill="#333959"/>
                <path id="Trazado_624694" data-name="Trazado 624694" d="M169.8,498.3H152.423c-2.028,0-3.873.279-4.12.625l-1.424,1.988c-.253.354,1.209.641,3.266.641h17.625c2.057,0,3.9-.287,4.113-.641l1.209-1.988C173.3,498.582,171.829,498.3,169.8,498.3Z" transform="translate(-97.819 -498.303)" fill="#333959"/>
                <path id="Trazado_624695" data-name="Trazado 624695" d="M200.264,498.3H182.887c-2.028,0-3.837.279-4.039.625l-1.165,1.988c-.207.354,1.292.641,3.349.641h17.625c2.057,0,3.861-.287,4.03-.641l.95-1.988C203.8,498.582,202.292,498.3,200.264,498.3Z" transform="translate(-98.536 -498.303)" fill="#333959"/>
                <path id="Trazado_624696" data-name="Trazado 624696" d="M230.727,498.3H213.35c-2.029,0-3.8.279-3.958.625l-.906,1.988c-.161.354,1.375.641,3.432.641h17.625c2.057,0,3.824-.287,3.947-.641l.692-1.988C234.3,498.582,232.756,498.3,230.727,498.3Z" transform="translate(-99.252 -498.303)" fill="#333959"/>
                <path id="Trazado_624697" data-name="Trazado 624697" d="M242.8,501.556h17.625c2.057,0,3.787-.287,3.864-.641l.433-1.988c.076-.346-1.507-.625-3.536-.625H243.813c-2.029,0-3.763.279-3.877.625l-.648,1.988C239.174,501.269,240.747,501.556,242.8,501.556Z" transform="translate(-99.969 -498.303)" fill="#333959"/>
                <path id="Trazado_624698" data-name="Trazado 624698" d="M273.69,501.556h17.625c2.057,0,3.75-.287,3.781-.641l.174-1.988c.031-.346-1.589-.625-3.617-.625H274.276c-2.029,0-3.727.279-3.8.625l-.39,1.988C270.023,501.269,271.633,501.556,273.69,501.556Z" transform="translate(-100.686 -498.303)" fill="#333959"/>
                <path id="Trazado_624699" data-name="Trazado 624699" d="M304.576,501.556H322.2c2.057,0,3.713-.287,3.7-.641l-.083-1.988c-.015-.346-1.671-.625-3.7-.625H304.739c-2.029,0-3.691.279-3.714.625l-.131,1.988C300.871,501.269,302.519,501.556,304.576,501.556Z" transform="translate(-101.403 -498.303)" fill="#333959"/>
                <path id="Trazado_624700" data-name="Trazado 624700" d="M335.459,501.556h17.625c2.057,0,3.675-.287,3.614-.641l-.342-1.988c-.06-.346-1.752-.625-3.78-.625H335.2c-2.028,0-3.654.279-3.632.625l.127,1.988C331.716,501.269,333.4,501.556,335.459,501.556Z" transform="translate(-102.116 -498.303)" fill="#333959"/>
                <path id="Trazado_624701" data-name="Trazado 624701" d="M383.033,498.3H365.655c-2.028,0-3.618.279-3.55.625l.386,1.988c.068.354,1.791.641,3.848.641h17.625c2.057,0,3.637-.287,3.531-.641l-.6-1.988C386.79,498.582,385.061,498.3,383.033,498.3Z" transform="translate(-102.827 -498.303)" fill="#333959"/>
                <path id="Trazado_624702" data-name="Trazado 624702" d="M413.489,498.3H396.112c-2.029,0-3.582.279-3.469.625l.645,1.988c.114.354,1.874.641,3.931.641h17.625c2.057,0,3.6-.287,3.448-.641l-.86-1.988C417.283,498.582,415.518,498.3,413.489,498.3Z" transform="translate(-103.537 -498.303)" fill="#333959"/>
                <path id="Trazado_624703" data-name="Trazado 624703" d="M443.946,498.3H426.569c-2.028,0-3.546.279-3.388.625l.9,1.988c.161.354,1.958.641,4.015.641h17.625c2.057,0,3.563-.287,3.365-.641l-1.118-1.988C447.776,498.582,445.975,498.3,443.946,498.3Z" transform="translate(-104.248 -498.303)" fill="#333959"/>
                <path id="Trazado_624704" data-name="Trazado 624704" d="M474.4,498.3H457.026c-2.029,0-3.509.279-3.307.625l1.161,1.988c.206.354,2.041.641,4.1.641H476.6c2.057,0,3.526-.287,3.281-.641l-1.376-1.988C478.269,498.582,476.431,498.3,474.4,498.3Z" transform="translate(-104.958 -498.303)" fill="#333959"/>
                <path id="Trazado_624705" data-name="Trazado 624705" d="M504.859,498.3H487.483c-2.029,0-3.473.279-3.226.625l1.42,1.988c.252.354,2.124.641,4.181.641h17.625c2.057,0,3.488-.287,3.2-.641l-1.634-1.988C508.762,498.582,506.887,498.3,504.859,498.3Z" transform="translate(-105.668 -498.303)" fill="#333959"/>
                <path id="Trazado_624706" data-name="Trazado 624706" d="M136.194,502.457H118.508c-2.064,0-3.982.289-4.286.648l-1.742,2.06c-.31.365,1.136.663,3.23.663h17.942c2.094,0,4.011-.3,4.281-.663l1.521-2.06C139.717,502.746,138.258,502.457,136.194,502.457Z" transform="translate(-97.018 -498.4)" fill="#333959"/>
                <path id="Trazado_624707" data-name="Trazado 624707" d="M167.2,502.457H149.512c-2.064,0-3.945.289-4.2.648l-1.475,2.06c-.262.365,1.223.663,3.317.663h17.942c2.094,0,3.972-.3,4.2-.663l1.252-2.06C170.759,502.746,169.262,502.457,167.2,502.457Z" transform="translate(-97.748 -498.4)" fill="#333959"/>
                <path id="Trazado_624708" data-name="Trazado 624708" d="M198.2,502.457H180.516c-2.064,0-3.907.289-4.117.648l-1.207,2.06c-.215.365,1.309.663,3.4.663h17.942c2.094,0,3.933-.3,4.108-.663l.985-2.06C201.8,502.746,200.265,502.457,198.2,502.457Z" transform="translate(-98.478 -498.4)" fill="#333959"/>
                <path id="Trazado_624709" data-name="Trazado 624709" d="M229.2,502.457H211.519c-2.064,0-3.87.289-4.033.648l-.94,2.06c-.166.365,1.4.663,3.49.663h17.942c2.094,0,3.894-.3,4.022-.663l.717-2.06C232.841,502.746,231.269,502.457,229.2,502.457Z" transform="translate(-99.207 -498.4)" fill="#333959"/>
                <path id="Trazado_624710" data-name="Trazado 624710" d="M241.478,505.828H259.42c2.093,0,3.856-.3,3.935-.663l.449-2.06c.078-.358-1.533-.648-3.6-.648H242.523c-2.064,0-3.832.289-3.949.648l-.671,2.06C237.784,505.53,239.385,505.828,241.478,505.828Z" transform="translate(-99.937 -498.4)" fill="#333959"/>
                <path id="Trazado_624711" data-name="Trazado 624711" d="M272.92,505.828h17.942c2.094,0,3.818-.3,3.85-.663l.181-2.06c.032-.358-1.617-.648-3.68-.648H273.526c-2.064,0-3.794.289-3.864.648l-.4,2.06C269.187,505.53,270.826,505.828,272.92,505.828Z" transform="translate(-100.667 -498.4)" fill="#333959"/>
                <path id="Trazado_624712" data-name="Trazado 624712" d="M304.362,505.828H322.3c2.094,0,3.779-.3,3.763-.663l-.086-2.06c-.016-.358-1.7-.648-3.765-.648H304.53c-2.064,0-3.757.289-3.78.648l-.136,2.06C300.59,505.53,302.268,505.828,304.362,505.828Z" transform="translate(-101.396 -498.4)" fill="#333959"/>
                <path id="Trazado_624713" data-name="Trazado 624713" d="M335.8,505.828h17.942c2.094,0,3.74-.3,3.677-.663l-.355-2.06c-.062-.358-1.785-.648-3.849-.648H335.53c-2.064,0-3.718.289-3.7.648l.133,2.06C331.99,505.53,333.706,505.828,335.8,505.828Z" transform="translate(-102.123 -498.4)" fill="#333959"/>
                <path id="Trazado_624714" data-name="Trazado 624714" d="M384.213,502.457H366.527c-2.064,0-3.68.289-3.611.648l.4,2.06c.071.365,1.826.663,3.921.663h17.942c2.094,0,3.7-.3,3.591-.663l-.623-2.06C388.037,502.746,386.277,502.457,384.213,502.457Z" transform="translate(-102.846 -498.4)" fill="#333959"/>
                <path id="Trazado_624715" data-name="Trazado 624715" d="M415.21,502.457H397.524c-2.064,0-3.643.289-3.527.648l.668,2.06c.118.365,1.912.663,4.007.663h17.942c2.094,0,3.663-.3,3.5-.663l-.89-2.06C419.073,502.746,417.274,502.457,415.21,502.457Z" transform="translate(-103.569 -498.4)" fill="#333959"/>
                <path id="Trazado_624716" data-name="Trazado 624716" d="M446.206,502.457H428.521c-2.064,0-3.605.289-3.443.648l.936,2.06c.166.365,2,.663,4.093.663h17.943c2.093,0,3.624-.3,3.418-.663l-1.157-2.06C450.107,502.746,448.271,502.457,446.206,502.457Z" transform="translate(-104.292 -498.4)" fill="#333959"/>
                <path id="Trazado_624717" data-name="Trazado 624717" d="M477.2,502.457H459.517c-2.064,0-3.568.289-3.358.648l1.2,2.06c.214.365,2.084.663,4.178.663h17.942c2.094,0,3.587-.3,3.333-.663l-1.426-2.06C481.141,502.746,479.268,502.457,477.2,502.457Z" transform="translate(-105.015 -498.4)" fill="#333959"/>
                <path id="Trazado_624718" data-name="Trazado 624718" d="M508.2,502.457H490.515c-2.065,0-3.531.289-3.275.648l1.471,2.06c.262.365,2.171.663,4.265.663h17.942c2.094,0,3.547-.3,3.247-.663l-1.694-2.06C512.176,502.746,510.265,502.457,508.2,502.457Z" transform="translate(-105.738 -498.4)" fill="#333959"/>
                <path id="Trazado_624719" data-name="Trazado 624719" d="M132.937,506.761H114.932c-2.1,0-4.059.3-4.374.671l-1.806,2.135c-.321.38,1.147.688,3.279.688H130.3c2.132,0,4.089-.308,4.368-.688l1.576-2.135C136.52,507.061,135.038,506.761,132.937,506.761Z" transform="translate(-96.931 -498.5)" fill="#333959"/>
                <path id="Trazado_624720" data-name="Trazado 624720" d="M164.5,506.761H146.5c-2.1,0-4.02.3-4.286.671l-1.53,2.135c-.272.38,1.237.688,3.369.688H162.32c2.132,0,4.049-.308,4.279-.688l1.3-2.135C168.123,507.061,166.6,506.761,164.5,506.761Z" transform="translate(-97.674 -498.5)" fill="#333959"/>
                <path id="Trazado_624721" data-name="Trazado 624721" d="M196.064,506.761h-18c-2.1,0-3.981.3-4.2.671l-1.251,2.135c-.223.38,1.325.688,3.458.688h18.271c2.132,0,4.009-.308,4.189-.688l1.021-2.135C199.726,507.061,198.166,506.761,196.064,506.761Z" transform="translate(-98.417 -498.5)" fill="#333959"/>
                <path id="Trazado_624722" data-name="Trazado 624722" d="M227.628,506.761H209.623c-2.1,0-3.941.3-4.111.671l-.974,2.135c-.173.38,1.415.688,3.548.688h18.271c2.132,0,3.968-.308,4.1-.688l.742-2.135C231.328,507.061,229.73,506.761,227.628,506.761Z" transform="translate(-99.161 -498.5)" fill="#333959"/>
                <path id="Trazado_624723" data-name="Trazado 624723" d="M240.1,510.255h18.271c2.132,0,3.928-.308,4.01-.688l.466-2.135c.081-.371-1.558-.671-3.659-.671H241.186c-2.1,0-3.9.3-4.024.671l-.7,2.135C236.343,509.947,237.971,510.255,240.1,510.255Z" transform="translate(-99.904 -498.5)" fill="#333959"/>
                <path id="Trazado_624724" data-name="Trazado 624724" d="M272.121,510.255h18.271c2.132,0,3.888-.308,3.922-.688l.188-2.135c.032-.371-1.645-.671-3.746-.671H272.75c-2.1,0-3.864.3-3.937.671l-.418,2.135C268.321,509.947,269.989,510.255,272.121,510.255Z" transform="translate(-100.647 -498.5)" fill="#333959"/>
                <path id="Trazado_624725" data-name="Trazado 624725" d="M304.139,510.255H322.41c2.132,0,3.847-.308,3.832-.688l-.09-2.135c-.016-.371-1.732-.671-3.834-.671h-18c-2.1,0-3.825.3-3.849.671l-.142,2.135C300.3,509.947,302.007,510.255,304.139,510.255Z" transform="translate(-101.389 -498.5)" fill="#333959"/>
                <path id="Trazado_624726" data-name="Trazado 624726" d="M336.154,510.255h18.271c2.132,0,3.808-.308,3.743-.688l-.368-2.135c-.064-.371-1.819-.671-3.921-.671H335.873c-2.1,0-3.786.3-3.761.671l.137,2.135C332.273,509.947,334.021,510.255,336.154,510.255Z" transform="translate(-102.129 -498.5)" fill="#333959"/>
                <path id="Trazado_624727" data-name="Trazado 624727" d="M385.435,506.761H367.43c-2.1,0-3.747.3-3.674.671l.414,2.135c.074.38,1.863.688,3.995.688h18.271c2.132,0,3.767-.308,3.653-.688l-.646-2.135C389.331,507.061,387.537,506.761,385.435,506.761Z" transform="translate(-102.865 -498.5)" fill="#333959"/>
                <path id="Trazado_624728" data-name="Trazado 624728" d="M416.992,506.761H398.987c-2.1,0-3.708.3-3.587.671l.692,2.135c.123.38,1.952.688,4.084.688h18.271c2.132,0,3.727-.308,3.563-.688l-.922-2.135C420.927,507.061,419.093,506.761,416.992,506.761Z" transform="translate(-103.602 -498.5)" fill="#333959"/>
                <path id="Trazado_624729" data-name="Trazado 624729" d="M448.549,506.761H430.543c-2.1,0-3.668.3-3.5.671l.97,2.135c.173.38,2.041.688,4.174.688h18.271c2.132,0,3.687-.308,3.474-.688l-1.2-2.135C452.523,507.061,450.65,506.761,448.549,506.761Z" transform="translate(-104.338 -498.5)" fill="#333959"/>
                <path id="Trazado_624730" data-name="Trazado 624730" d="M480.105,506.761H462.1c-2.1,0-3.629.3-3.412.671l1.247,2.135c.222.38,2.13.688,4.262.688h18.271c2.132,0,3.647-.308,3.384-.688l-1.478-2.135C484.119,507.061,482.207,506.761,480.105,506.761Z" transform="translate(-105.074 -498.5)" fill="#333959"/>
                <path id="Trazado_624731" data-name="Trazado 624731" d="M511.662,506.761H493.657c-2.1,0-3.59.3-3.325.671l1.525,2.135c.271.38,2.22.688,4.352.688H514.48c2.132,0,3.607-.308,3.3-.688l-1.756-2.135C515.714,507.061,513.763,506.761,511.662,506.761Z" transform="translate(-105.81 -498.5)" fill="#333959"/>
                <path id="Trazado_624732" data-name="Trazado 624732" d="M129.56,511.223H111.224c-2.14,0-4.138.312-4.465.7l-1.874,2.215c-.333.394,1.156.714,3.329.714h18.612c2.172,0,4.17-.32,4.461-.714l1.634-2.215C133.2,511.535,131.7,511.223,129.56,511.223Z" transform="translate(-96.841 -498.604)" fill="#333959"/>
                <path id="Trazado_624733" data-name="Trazado 624733" d="M161.7,511.223H143.368c-2.14,0-4.1.312-4.374.7l-1.586,2.215c-.282.394,1.249.714,3.421.714h18.612c2.172,0,4.128-.32,4.367-.714l1.347-2.215C165.39,511.535,163.844,511.223,161.7,511.223Z" transform="translate(-97.598 -498.604)" fill="#333959"/>
                <path id="Trazado_624734" data-name="Trazado 624734" d="M193.849,511.223H175.512c-2.14,0-4.057.312-4.284.7l-1.3,2.215c-.23.394,1.343.714,3.515.714h18.612c2.172,0,4.086-.32,4.274-.714l1.059-2.215C197.574,511.535,195.989,511.223,193.849,511.223Z" transform="translate(-98.355 -498.604)" fill="#333959"/>
                <path id="Trazado_624735" data-name="Trazado 624735" d="M225.993,511.223H207.657c-2.14,0-4.017.312-4.193.7l-1.01,2.215c-.18.394,1.436.714,3.608.714h18.611c2.172,0,4.045-.32,4.181-.714l.772-2.215C229.759,511.535,228.133,511.223,225.993,511.223Z" transform="translate(-99.112 -498.604)" fill="#333959"/>
                <path id="Trazado_624736" data-name="Trazado 624736" d="M238.677,514.849h18.612c2.172,0,4-.32,4.089-.714l.482-2.215c.084-.385-1.582-.7-3.722-.7H239.8c-2.14,0-3.976.312-4.1.7l-.722,2.215C234.848,514.528,236.5,514.849,238.677,514.849Z" transform="translate(-99.869 -498.604)" fill="#333959"/>
                <path id="Trazado_624737" data-name="Trazado 624737" d="M271.293,514.849H289.9c2.172,0,3.962-.32,4-.714l.194-2.215c.034-.385-1.673-.7-3.813-.7H271.945c-2.14,0-3.936.312-4.011.7l-.435,2.215C267.422,514.528,269.12,514.849,271.293,514.849Z" transform="translate(-100.626 -498.604)" fill="#333959"/>
                <path id="Trazado_624738" data-name="Trazado 624738" d="M303.908,514.849H322.52c2.172,0,3.92-.32,3.9-.714l-.094-2.215c-.016-.385-1.764-.7-3.9-.7H304.089c-2.14,0-3.9.312-3.921.7l-.147,2.215C300,514.528,301.736,514.849,303.908,514.849Z" transform="translate(-101.382 -498.604)" fill="#333959"/>
                <path id="Trazado_624739" data-name="Trazado 624739" d="M336.521,514.849h18.611c2.172,0,3.879-.32,3.81-.714l-.381-2.215c-.066-.385-1.855-.7-3.995-.7H336.23c-2.14,0-3.855.312-3.831.7l.143,2.215C332.567,514.528,334.349,514.849,336.521,514.849Z" transform="translate(-102.136 -498.604)" fill="#333959"/>
                <path id="Trazado_624740" data-name="Trazado 624740" d="M386.7,511.223H368.367c-2.14,0-3.814.312-3.74.7l.431,2.215c.076.394,1.9.714,4.071.714H387.74c2.172,0,3.837-.32,3.717-.714l-.669-2.215C390.673,511.535,388.843,511.223,386.7,511.223Z" transform="translate(-102.886 -498.604)" fill="#333959"/>
                <path id="Trazado_624741" data-name="Trazado 624741" d="M418.84,511.223H400.5c-2.14,0-3.774.312-3.649.7l.718,2.215c.128.394,1.993.714,4.165.714h18.612c2.172,0,3.795-.32,3.625-.714l-.957-2.215C422.85,511.535,420.98,511.223,418.84,511.223Z" transform="translate(-103.635 -498.604)" fill="#333959"/>
                <path id="Trazado_624742" data-name="Trazado 624742" d="M450.977,511.223H432.641c-2.14,0-3.733.312-3.558.7l1.006,2.215c.179.394,2.085.714,4.258.714h18.612c2.172,0,3.753-.32,3.531-.714l-1.245-2.215C455.028,511.535,453.117,511.223,450.977,511.223Z" transform="translate(-104.385 -498.604)" fill="#333959"/>
                <path id="Trazado_624743" data-name="Trazado 624743" d="M483.114,511.223H464.778c-2.14,0-3.693.312-3.467.7l1.294,2.215c.23.394,2.177.714,4.349.714h18.612c2.172,0,3.712-.32,3.439-.714l-1.534-2.215C487.2,511.535,485.254,511.223,483.114,511.223Z" transform="translate(-105.135 -498.604)" fill="#333959"/>
                <path id="Trazado_624744" data-name="Trazado 624744" d="M515.251,511.223H496.915c-2.14,0-3.652.312-3.377.7l1.581,2.215c.281.394,2.271.714,4.443.714h18.612c2.172,0,3.67-.32,3.346-.714l-1.822-2.215C519.383,511.535,517.391,511.223,515.251,511.223Z" transform="translate(-105.884 -498.604)" fill="#333959"/>
                <path id="Trazado_624745" data-name="Trazado 624745" d="M126.056,515.853h-18.68c-2.18,0-4.22.322-4.559.723l-1.945,2.3c-.347.408,1.167.741,3.38.741h18.965c2.213,0,4.254-.333,4.555-.741l1.7-2.3C129.765,516.175,128.236,515.853,126.056,515.853Z" transform="translate(-96.748 -498.711)" fill="#333959"/>
                <path id="Trazado_624746" data-name="Trazado 624746" d="M158.8,515.853H140.124c-2.18,0-4.179.322-4.466.723l-1.647,2.3c-.293.408,1.264.741,3.477.741h18.965c2.214,0,4.211-.333,4.459-.741l1.4-2.3C162.553,516.175,160.983,515.853,158.8,515.853Z" transform="translate(-97.519 -498.711)" fill="#333959"/>
                <path id="Trazado_624747" data-name="Trazado 624747" d="M191.549,515.853H172.87c-2.18,0-4.137.322-4.372.723l-1.348,2.3c-.239.408,1.361.741,3.574.741H189.69c2.214,0,4.168-.333,4.363-.741l1.1-2.3C195.343,516.175,193.729,515.853,191.549,515.853Z" transform="translate(-98.29 -498.711)" fill="#333959"/>
                <path id="Trazado_624748" data-name="Trazado 624748" d="M224.3,515.853H205.617c-2.18,0-4.1.322-4.277.723l-1.049,2.3c-.187.408,1.456.741,3.67.741h18.966c2.213,0,4.123-.333,4.265-.741l.8-2.3C228.131,516.175,226.476,515.853,224.3,515.853Z" transform="translate(-99.062 -498.711)" fill="#333959"/>
                <path id="Trazado_624749" data-name="Trazado 624749" d="M237.2,519.616h18.966c2.213,0,4.08-.333,4.17-.741l.5-2.3c.087-.4-1.61-.723-3.791-.723H238.363c-2.18,0-4.053.322-4.183.723l-.75,2.3C233.3,519.283,234.983,519.616,237.2,519.616Z" transform="translate(-99.833 -498.711)" fill="#333959"/>
                <path id="Trazado_624750" data-name="Trazado 624750" d="M270.433,519.616H289.4c2.213,0,4.037-.333,4.073-.741l.2-2.3c.035-.4-1.7-.723-3.884-.723H271.11c-2.18,0-4.01.322-4.09.723l-.45,2.3C266.49,519.283,268.219,519.616,270.433,519.616Z" transform="translate(-100.604 -498.711)" fill="#333959"/>
                <path id="Trazado_624751" data-name="Trazado 624751" d="M303.669,519.616h18.965c2.213,0,3.994-.333,3.977-.741l-.1-2.3c-.017-.4-1.8-.723-3.977-.723h-18.68c-2.18,0-3.968.322-3.995.723l-.151,2.3C299.683,519.283,301.455,519.616,303.669,519.616Z" transform="translate(-101.375 -498.711)" fill="#333959"/>
                <path id="Trazado_624752" data-name="Trazado 624752" d="M336.9,519.616h18.965c2.214,0,3.951-.333,3.881-.741l-.4-2.3c-.069-.4-1.892-.723-4.072-.723H336.6c-2.18,0-3.926.322-3.9.723l.148,2.3C332.872,519.283,334.688,519.616,336.9,519.616Z" transform="translate(-102.143 -498.711)" fill="#333959"/>
                <path id="Trazado_624753" data-name="Trazado 624753" d="M388.018,515.853h-18.68c-2.18,0-3.884.322-3.807.723l.446,2.3c.08.408,1.939.741,4.152.741h18.965c2.214,0,3.908-.333,3.785-.741l-.7-2.3C392.063,516.175,390.2,515.853,388.018,515.853Z" transform="translate(-102.907 -498.711)" fill="#333959"/>
                <path id="Trazado_624754" data-name="Trazado 624754" d="M420.757,515.853h-18.68c-2.18,0-3.842.322-3.713.723l.745,2.3c.133.408,2.035.741,4.248.741h18.966c2.213,0,3.864-.333,3.687-.741l-.994-2.3C424.844,516.175,422.937,515.853,420.757,515.853Z" transform="translate(-103.67 -498.711)" fill="#333959"/>
                <path id="Trazado_624755" data-name="Trazado 624755" d="M453.5,515.853h-18.68c-2.18,0-3.8.322-3.619.723l1.044,2.3c.186.408,2.131.741,4.345.741h18.966c2.213,0,3.821-.333,3.59-.741l-1.292-2.3C457.626,516.175,455.677,515.853,453.5,515.853Z" transform="translate(-104.434 -498.711)" fill="#333959"/>
                <path id="Trazado_624756" data-name="Trazado 624756" d="M486.235,515.853h-18.68c-2.18,0-3.758.322-3.524.723l1.343,2.3c.238.408,2.227.741,4.441.741h18.965c2.213,0,3.778-.333,3.495-.741l-1.592-2.3C490.407,516.175,488.416,515.853,486.235,515.853Z" transform="translate(-105.198 -498.711)" fill="#333959"/>
                <path id="Trazado_624757" data-name="Trazado 624757" d="M518.974,515.853H500.3c-2.181,0-3.717.322-3.431.723l1.642,2.3c.292.408,2.324.741,4.538.741h18.965c2.213,0,3.735-.333,3.4-.741l-1.891-2.3C523.188,516.175,521.154,515.853,518.974,515.853Z" transform="translate(-105.962 -498.711)" fill="#333959"/>
                <path id="Trazado_624758" data-name="Trazado 624758" d="M122.418,520.659H103.383c-2.222,0-4.307.335-4.659.751L96.7,523.8c-.359.425,1.178.771,3.434.771H119.47c2.256,0,4.341-.346,4.653-.771l1.763-2.388C126.193,520.994,124.64,520.659,122.418,520.659Z" transform="translate(-96.651 -498.823)" fill="#333959"/>
                <path id="Trazado_624759" data-name="Trazado 624759" d="M155.79,520.659H136.755c-2.222,0-4.263.335-4.561.751l-1.71,2.388c-.3.425,1.278.771,3.534.771H153.35c2.256,0,4.3-.346,4.554-.771l1.452-2.388C159.609,520.994,158.012,520.659,155.79,520.659Z" transform="translate(-97.437 -498.823)" fill="#333959"/>
                <path id="Trazado_624760" data-name="Trazado 624760" d="M189.163,520.659H170.127c-2.222,0-4.219.335-4.464.751l-1.4,2.388c-.249.425,1.378.771,3.634.771h19.333c2.256,0,4.251-.346,4.454-.771l1.142-2.388C193.025,520.994,191.384,520.659,189.163,520.659Z" transform="translate(-98.223 -498.823)" fill="#333959"/>
                <path id="Trazado_624761" data-name="Trazado 624761" d="M222.535,520.659H203.5c-2.222,0-4.176.335-4.365.751l-1.09,2.388c-.193.425,1.478.771,3.735.771h19.332c2.257,0,4.207-.346,4.354-.771l.831-2.388C226.441,520.994,224.756,520.659,222.535,520.659Z" transform="translate(-99.009 -498.823)" fill="#333959"/>
                <path id="Trazado_624762" data-name="Trazado 624762" d="M422.747,520.659H403.712c-2.222,0-3.915.335-3.78.751l.775,2.388c.138.425,2.078.771,4.336.771h19.332c2.257,0,3.936-.346,3.753-.771l-1.032-2.388C426.916,520.994,424.969,520.659,422.747,520.659Z" transform="translate(-103.707 -498.823)" fill="#333959"/>
                <path id="Trazado_624763" data-name="Trazado 624763" d="M456.111,520.659H437.076c-2.222,0-3.871.335-3.682.751l1.085,2.388c.193.425,2.179.771,4.435.771h19.333c2.256,0,3.891-.346,3.653-.771l-1.343-2.388C460.323,520.994,458.334,520.659,456.111,520.659Z" transform="translate(-104.485 -498.823)" fill="#333959"/>
                <path id="Trazado_624764" data-name="Trazado 624764" d="M489.477,520.659H470.44c-2.222,0-3.827.335-3.585.751l1.4,2.388c.248.425,2.28.771,4.536.771h19.333c2.256,0,3.846-.346,3.552-.771l-1.654-2.388C493.731,520.994,491.7,520.659,489.477,520.659Z" transform="translate(-105.264 -498.823)" fill="#333959"/>
                <path id="Trazado_624765" data-name="Trazado 624765" d="M522.841,520.659H503.8c-2.222,0-3.783.335-3.486.751l1.705,2.388c.3.425,2.379.771,4.636.771h19.333c2.256,0,3.8-.346,3.453-.771l-1.964-2.388C527.139,520.994,525.062,520.659,522.841,520.659Z" transform="translate(-106.042 -498.823)" fill="#333959"/>
                <path id="Trazado_624766" data-name="Trazado 624766" d="M386.25,520.659H236.871c-2.222,0-4.133.335-4.267.751l-.779,2.388c-.138.425,1.578.771,3.835.771H387.369c2.256,0,3.981-.346,3.852-.771l-.722-2.388C390.375,520.994,388.472,520.659,386.25,520.659Z" transform="translate(-99.796 -498.823)" fill="#333959"/>
              </g>
            </g>
            <g id="Grupo_897671" data-name="Grupo 897671">
              <g id="Grupo_897668" data-name="Grupo 897668" transform="translate(156.44 401.947)">
                <path id="Trazado_624767" data-name="Trazado 624767" d="M452.767,459.967l-22.943-27.309c-1.546-1.84-5.818-2.775-12.7-2.775H212.383c-6.858,0-11.131.92-12.7,2.736l-23.6,27.309c-2.266,2.208-1.309,9.581-.65,11.022.563,1.228,1.607,3.51,11.527,3.51H441.816c9.924,0,10.981-2.272,11.549-3.492C454.03,469.543,454.772,461.951,452.767,459.967Z" transform="translate(-174.664 -429.884)" fill="url(#linear-gradient)"/>
                <path id="Trazado_624768" data-name="Trazado 624768" d="M452.777,459.967l-22.943-27.309c-1.546-1.84-5.818-2.775-12.7-2.775H212.393c-6.859,0-11.131.92-12.7,2.736l-23.6,27.309a4.01,4.01,0,0,0-.65,4.327c.563,1.227,1.607,3.509,11.527,3.509H441.826c9.924,0,10.981-2.272,11.549-3.492A4,4,0,0,0,452.777,459.967Z" transform="translate(-174.674 -429.884)" fill="#b0b2b4"/>
              </g>
              <path id="Trazado_624769" data-name="Trazado 624769" d="M272.992,332.918V439.385c0,2.931,19.548,5.308,43.662,5.308s43.663-2.376,43.663-5.308V332.918Z" transform="translate(-20.512 -25.681)" fill="url(#linear-gradient-3)"/>
              <path id="Trazado_624770" data-name="Trazado 624770" d="M316.654,359.506c-24.114,0-43.662,2.376-43.662,5.309v39.413h87.325V364.815C360.317,361.882,340.768,359.506,316.654,359.506Z" transform="translate(-20.512 -26.3)" fill="url(#linear-gradient)"/>
              <path id="Rectángulo_301446" data-name="Rectángulo 301446" d="M13.864,0H578.419a13.864,13.864,0,0,1,13.864,13.864V355.272a13.863,13.863,0,0,1-13.863,13.863H13.863A13.863,13.863,0,0,1,0,355.272V13.864A13.864,13.864,0,0,1,13.864,0Z" fill="#b0b2b4"/>
              <rect id="Rectángulo_301447" data-name="Rectángulo 301447" width="581.436" height="358.288" rx="5.007" transform="translate(5.424 5.423)" fill="#333959"/>
              <path id="Trazado_624771" data-name="Trazado 624771" d="M31.705,351.651H590.375V46.922H31.705Z" transform="translate(-14.898 -19.027)" fill="#232323"/>
              <path id="Trazado_624772" data-name="Trazado 624772" d="M31.705,63.2H590.375V46.922H31.705Z" transform="translate(-14.898 -19.027)" fill="url(#linear-gradient-5)"/>
              <path id="Trazado_624773" data-name="Trazado 624773" d="M39.109,55.151h0a4.45,4.45,0,0,0,4.45,4.45H72.45a4.45,4.45,0,0,0,4.45-4.45h0a4.45,4.45,0,0,0-4.45-4.45H43.559A4.45,4.45,0,0,0,39.109,55.151Z" transform="translate(-15.07 -19.115)" fill="#fff"/>
              <path id="Trazado_624774" data-name="Trazado 624774" d="M478.916,55.151h0a4.45,4.45,0,0,0,4.45,4.45h100.6a4.45,4.45,0,0,0,4.45-4.45h0a4.45,4.45,0,0,0-4.45-4.45h-100.6A4.45,4.45,0,0,0,478.916,55.151Z" transform="translate(-25.303 -19.115)" fill="#fff"/>
              <g id="Grupo_897670" data-name="Grupo 897670" transform="translate(288.808 9.726)">
                <circle id="Elipse_6258" data-name="Elipse 6258" cx="7.334" cy="7.334" r="7.334" fill="#1e1c1d"/>
                <g id="Grupo_897669" data-name="Grupo 897669" transform="translate(1.243 1.243)">
                  <path id="Trazado_624775" data-name="Trazado 624775" d="M323.64,35.683a6.091,6.091,0,1,1-6.091-6.091A6.091,6.091,0,0,1,323.64,35.683Z" transform="translate(-311.458 -29.592)" fill="url(#linear-gradient-6)"/>
                  <path id="Trazado_624776" data-name="Trazado 624776" d="M322.727,35.705a5.156,5.156,0,1,1-5.156-5.156A5.156,5.156,0,0,1,322.727,35.705Z" transform="translate(-311.48 -29.614)" fill="#090a0c"/>
                  <path id="Trazado_624777" data-name="Trazado 624777" d="M322.371,35.714a4.791,4.791,0,1,1-4.791-4.791A4.791,4.791,0,0,1,322.371,35.714Z" transform="translate(-311.489 -29.623)" fill="url(#linear-gradient-7)"/>
                  <path id="Trazado_624778" data-name="Trazado 624778" d="M320.492,35.76a2.867,2.867,0,1,1-2.867-2.867A2.867,2.867,0,0,1,320.492,35.76Z" transform="translate(-311.535 -29.669)" fill="url(#linear-gradient-8)"/>
                  <circle id="Elipse_6259" data-name="Elipse 6259" cx="1.142" cy="1.142" r="1.142" transform="translate(4.949 4.948)" fill="url(#linear-gradient-9)"/>
                </g>
              </g>
            </g>
            <g id="Grupo_897672" data-name="Grupo 897672" transform="translate(539.719 470.496)">
              <path id="Trazado_624779" data-name="Trazado 624779" d="M613.535,512.073c9.459,10.5,5.5,22.859-13.1,22.877s-33.506-12.318-33.357-22.829c.1-7.436,8.107-12.044,17.9-12.055S606.844,504.644,613.535,512.073Z" transform="translate(-567.074 -500.066)" fill="#b0b2b4"/>
              <path id="Trazado_624780" data-name="Trazado 624780" d="M613.553,512.342c-.222-.246-.464-.481-.7-.721,2.861,8.36-2.678,15.989-17.287,16-11.6.012-21.761-4.783-27.731-10.943,3.192,9.305,16.508,18.553,32.613,18.536C619.051,535.2,623.012,522.843,613.553,512.342Z" transform="translate(-567.092 -500.335)" fill="url(#linear-gradient)"/>
            </g>
          </g>
        </g>
      </g>
      <g id="Grupo_897678" data-name="Grupo 897678" transform="translate(26.022 48.535)">
        <path id="Trazado_624781" data-name="Trazado 624781" d="M46.388,154.7V329.733h9.155" transform="translate(-41.262 -70.069)" fill="none" stroke="#706f6f" stroke-miterlimit="10" stroke-width="0.5"/>
        <text id="create_database_dbs_ManejoClientes_go_use_dbs_ManejoClientes_go_create_table_tbl_clientes_PKIdentificacion_varchar_11_primary_key_Nombre_varchar_50_not_null_Contacto_int_not_null_Correo_varchar_80_not_null_FKId_tbl_Sexo_int_" data-name="create database dbs_ManejoClientes
go
use dbs_ManejoClientes
go
create table tbl_clientes
(
    PKIdentificacion varchar (11) primary key,
    Nombre varchar (50) not null,
    Contacto int not null,
    Correo varchar (80) not null,
    FKId_tbl_Sexo int " transform="translate(18.959 16)" fill="#706f6f" font-size="15" font-family="Roboto-Regular, Roboto"><tspan x="0" y="0" fill="#21cbae">create database</tspan><tspan y="0" fill="#000"> </tspan><tspan y="0" fill="#fff">dbs_ManejoClientes</tspan><tspan fill="#21cbae"><tspan x="0" y="16">go</tspan></tspan><tspan x="0" y="32" fill="#21cbae">use</tspan><tspan y="32" fill="#000"> </tspan><tspan y="32" fill="#fff">dbs_ManejoClientes</tspan><tspan fill="#21cbae"><tspan x="0" y="48">go</tspan></tspan><tspan x="0" y="64" fill="#21cbae">create table</tspan><tspan y="64" fill="#000"> </tspan><tspan y="64" fill="#fff">tbl_clientes</tspan><tspan x="0" y="80">(</tspan><tspan x="0" y="96" xml:space="preserve" fill="#000">    </tspan><tspan y="96" fill="#fff">PKIdentificacion</tspan><tspan y="96" fill="#000"> </tspan><tspan y="96" fill="#21cbae">varchar</tspan><tspan y="96" fill="#000"> </tspan><tspan y="96" fill="#fff">(11)</tspan><tspan y="96" fill="#000"> </tspan><tspan y="96" fill="#21cbae">primary key</tspan><tspan y="96" fill="#000">,</tspan><tspan x="0" y="112" xml:space="preserve" fill="#000">    </tspan><tspan y="112" fill="#fff">Nombre</tspan><tspan y="112" fill="#000"> </tspan><tspan y="112" fill="#21cbae">varcha</tspan><tspan y="112" fill="#1d71b8">r</tspan><tspan y="112" fill="#000"> </tspan><tspan y="112" fill="#fff">(50)</tspan><tspan y="112" fill="#000"> </tspan><tspan y="112" fill="#706f6f">not null,</tspan><tspan x="0" y="128" xml:space="preserve" fill="#000">    </tspan><tspan y="128" fill="#fff">Contacto</tspan><tspan y="128" fill="#000"> </tspan><tspan y="128" fill="#21cbae">int</tspan><tspan y="128" fill="#000"> </tspan><tspan y="128" fill="#706f6f">not null,</tspan><tspan x="0" y="144" xml:space="preserve" fill="#000">    </tspan><tspan y="144" fill="#fff">Correo</tspan><tspan y="144" fill="#000"> </tspan><tspan y="144" fill="#21cbae">varchar</tspan><tspan y="144" fill="#000"> </tspan><tspan y="144" fill="#fff">(80)</tspan><tspan y="144" fill="#000"> </tspan><tspan y="144" fill="#706f6f">not null,</tspan><tspan x="0" y="160" xml:space="preserve" fill="#000">    </tspan><tspan y="160" fill="#fff">FKId_tbl_Sexo</tspan><tspan y="160" xml:space="preserve" fill="#21cbae"> int</tspan><tspan y="160" fill="#000"> </tspan><tspan y="160" fill="#706f6f">not null</tspan><tspan x="0" y="176">)</tspan><tspan x="0" y="192" fill="#21cbae">create table</tspan><tspan y="192" fill="#000"> </tspan><tspan y="192" fill="#fff">tbl_Sexo</tspan><tspan x="0" y="208">(</tspan><tspan x="0" y="224" xml:space="preserve" fill="#000">    </tspan><tspan y="224" fill="#fff">PKId </tspan><tspan y="224" fill="#21cbae">int primary key</tspan><tspan y="224" fill="#fff">,</tspan><tspan x="0" y="240" xml:space="preserve" fill="#000">    </tspan><tspan y="240" fill="#fff">Descripcion </tspan><tspan y="240" fill="#21cbae">varchar</tspan><tspan y="240" xml:space="preserve" fill="#706f6f"> (</tspan><tspan y="240" fill="#fff">80</tspan><tspan y="240" fill="#706f6f">)</tspan><tspan y="240" fill="#000"> </tspan><tspan y="240" fill="#706f6f">not null</tspan><tspan x="0" y="256">)</tspan><tspan font-family="Roboto-Regular"><tspan x="0" y="272"></tspan></tspan></text>
        <g id="Grupo_897676" data-name="Grupo 897676" transform="translate(0 74.74)">
          <rect id="Rectángulo_301448" data-name="Rectángulo 301448" width="9.521" height="9.521" fill="#fff" stroke="#706f6f" stroke-miterlimit="10" stroke-width="0.5"/>
          <line id="Línea_508" data-name="Línea 508" x2="5.127" transform="translate(2.563 4.394)" fill="#fff" stroke="#706f6f" stroke-miterlimit="10" stroke-width="0.5"/>
        </g>
        <g id="Grupo_897677" data-name="Grupo 897677" transform="translate(0 201.074)">
          <rect id="Rectángulo_301449" data-name="Rectángulo 301449" width="9.521" height="9.521" fill="#fff" stroke="#706f6f" stroke-miterlimit="10" stroke-width="0.5"/>
          <line id="Línea_509" data-name="Línea 509" x2="5.127" transform="translate(2.563 4.394)" fill="#fff" stroke="#706f6f" stroke-miterlimit="10" stroke-width="0.5"/>
        </g>
      </g>
    </g>
  </g>
</svg>
