<svg xmlns="http://www.w3.org/2000/svg" width="183.5" height="183.5" viewBox="0 0 183.5 183.5">
  <g id="Grupo_897689" data-name="Grupo 897689" transform="translate(19497 10893.435)">
    <g id="svg1" transform="translate(-19497.25 -10893.685)">
      <circle id="Elipse_5021" data-name="Elipse 5021" cx="91.75" cy="91.75" r="91.75" transform="translate(0.25 0.25)" fill="#0b4e7c"/>
      <path id="Trazado_602553" data-name="Trazado 602553" d="M92,.25v183.5A91.75,91.75,0,0,0,92,.25Z" fill="#0f6baa"/>
      <g id="Grupo_878058" data-name="Grupo 878058">
        <path id="Trazado_602554" data-name="Trazado 602554" d="M66.95,141.11H48.7a4.494,4.494,0,0,1-4.5-4.5V91.38a4.494,4.494,0,0,1,4.5-4.5H66.95a4.494,4.494,0,0,1,4.5,4.5v45.23A4.5,4.5,0,0,1,66.95,141.11Z" fill="#fff"/>
        <path id="Trazado_602555" data-name="Trazado 602555" d="M140.71,101.11a7.326,7.326,0,0,0-5.95-7.94,8,8,0,0,0,5.61-10.21,7.921,7.921,0,0,0-7.62-5.51H107.2l4.86-16.98a32.376,32.376,0,0,0,1.24-8.91V49.23a9.623,9.623,0,0,0-9.92-9.62,5.659,5.659,0,0,0-5.41,5.69v6.08a13.69,13.69,0,0,1-2.77,8.26L80.67,78.54a16.635,16.635,0,0,0-3.44,10.13v40.66a4.722,4.722,0,0,0,4.72,4.72l48.77-.07a5.962,5.962,0,0,0,5.96-5.96v-.72a5.967,5.967,0,0,0-4.12-5.67,7,7,0,0,0,.24-13.91h.35A7.522,7.522,0,0,0,140.71,101.11Z" fill="#fff"/>
      </g>
    </g>
  </g>
</svg>
